<svg id="Capa_1" data-name="Capa 1" xmlns="http://www.w3.org/2000/svg" viewBox="0 0 105.51 117.39"><defs><style>.cls-1{font-size:51.47px;fill:#333;font-family:Montserrat-Regular, Montserrat;}.cls-2{fill:none;stroke:#333;stroke-miterlimit:10;stroke-width:2px;}.cls-3{fill:#ffacad;}</style></defs><title>Ana &amp;amp; Benjie</title><text class="cls-1" transform="translate(27.11 74.91)">18</text><rect class="cls-2" x="1" y="1" width="103.51" height="115.39" rx="26.45"/><path class="cls-3" d="M485.11,83.92c75.82,59.07,154.53,120,211.58,198.35,39.59,54.37,61.89,117.12,68.28,183.94,6,62.9-1.75,131.92-40.52,184-21.38,28.69-50.35,46.71-82.59,61-34.54,15.35-70.6,27.11-106.86,37.63-76.88,22.31-155.38,38.67-231.84,62.48C237.31,831.82,169,858,117.67,905.59c-46,42.65-83.71,102.54-70.51,167.55,11,53.94,51.25,97.55,92.25,131.66,37.23,31,78.55,55.9,119.72,81.15,32.67,20,65.24,39.78,99.64,56.78a810.22,810.22,0,0,0,131.63,51.82c88,25.69,186.3,37.25,276.3,15,35.89-8.86,75.56-24.11,98.72-54.52,20.45-26.86,18.66-60.39.91-88.13-21.78-34-58.67-55.34-96-68.29-46.2-16-95.67-21.37-144.29-23.28-46-1.81-91.43.23-137.23,4.47-117.09,10.83-235.32,29.27-347.93,63.73-50.3,15.4-101.64,34.14-145.29,64.1-16.87,11.58-32.75,25.14-44.65,41.91-15.51,21.87-21.92,49.54-19.07,76.09,3.95,36.82,24.16,69.71,48.08,97.09,29.82,34.1,66.82,61.84,105.35,85.33,78.84,48.09,166.26,80.26,246.4,126,36.62,20.91,71.9,44.63,101.94,74.41,2.75,2.72,7-1.52,4.25-4.24-61.53-61-142.93-97.81-220.06-134.65-81.26-38.82-166.23-77.82-228.3-145.19-26.14-28.37-49.28-63.68-52.06-103.18-1.86-26.48,5.83-52.88,22.39-73.63,28.84-36.14,74.39-58,116.28-75,54.44-22.07,111.62-37.27,168.94-49.75,57.95-12.61,116.58-22.21,175.42-29.59,43.76-5.49,87.76-10,131.83-12.07,27.66-1.29,55.43-.84,83.07.54,47.86,2.4,96.45,8.5,141.5,25.62,37.69,14.33,77.9,40.12,92.94,79.5,14.08,36.87-6.34,69.8-37.32,89.63-35.5,22.74-79.4,32.33-120.87,36.21-47.81,4.47-96.48,1.62-143.75-6.4-92.3-15.68-180.39-51.51-261.14-98.32-42.87-24.86-86.1-50.93-126.57-79.55-44.1-31.19-88.38-68.61-113.28-117.55-12-23.67-18.35-50-16.08-76.57,2.78-32.64,18.25-62.77,38-88.36,44.87-58.1,109.55-91.81,177.43-116.07,72.73-26,148.42-42.55,223-62.24,36.51-9.65,72.92-19.92,108.51-32.59,31.62-11.25,65-23.61,92.49-43.23,51.15-36.49,75.42-96.48,81.08-157.43,5.48-59-4-120.8-25.34-176-29.38-75.82-88.28-136.85-148.1-190-35-31-71.67-60.06-108.54-88.79-3-2.35-7.29,1.87-4.24,4.24Z"/></svg>