<svg id="Capa_1" data-name="Capa 1" xmlns="http://www.w3.org/2000/svg" viewBox="0 0 130.67 145.44"><defs><style>.cls-1{font-size:63.98px;fill:#333;font-family:Montserrat-Regular, Montserrat;}.cls-2{fill:none;stroke:#333;stroke-miterlimit:10;stroke-width:2px;}.cls-3{fill:#ffacad;}</style></defs><title>Ana &amp;amp; Benjie</title><text class="cls-1" transform="translate(39.11 92.62)">21</text><rect class="cls-2" x="1" y="1" width="128.67" height="143.44" rx="26.45"/><path class="cls-3" d="M-67.94,97.94C7.88,157,86.59,217.93,143.65,296.29c39.59,54.37,61.88,117.12,68.27,183.94,6,62.9-1.74,131.92-40.52,183.95-21.38,28.69-50.34,46.71-82.59,61C54.27,740.57,18.21,752.33-18,762.86c-76.88,22.3-155.38,38.67-231.83,62.48C-315.73,845.85-384,872-435.37,919.61c-46,42.65-83.71,102.54-70.51,167.55,10.95,53.94,51.25,97.56,92.24,131.66,37.24,31,78.55,55.9,119.73,81.15,32.66,20,65.23,39.78,99.63,56.78a810,810,0,0,0,131.64,51.82c88,25.7,186.29,37.25,276.3,15,35.88-8.86,75.55-24.1,98.71-54.52,20.45-26.85,18.66-60.39.91-88.13-21.77-34-58.67-55.34-96-68.29-46.2-16-95.67-21.37-144.29-23.28-46-1.81-91.43.23-137.23,4.47-117.09,10.84-235.31,29.27-347.92,63.74-50.3,15.39-101.65,34.13-145.3,64.1-16.86,11.57-32.75,25.13-44.65,41.9-15.51,21.87-21.92,49.54-19.07,76.09,3.95,36.82,24.16,69.71,48.09,97.09,29.81,34.1,66.82,61.84,105.34,85.33,78.85,48.09,166.26,80.26,246.41,126,36.61,20.91,71.89,44.64,101.94,74.41,2.74,2.72,7-1.52,4.24-4.24-61.53-61-142.92-97.81-220-134.65-81.26-38.81-166.24-77.82-228.31-145.19-26.13-28.36-49.28-63.68-52.05-103.18-1.86-26.48,5.83-52.88,22.38-73.63,28.84-36.14,74.39-58,116.29-75,54.43-22.07,111.62-37.27,168.93-49.74,58-12.62,116.58-22.22,175.42-29.6,43.77-5.49,87.76-10,131.83-12.07,27.66-1.29,55.43-.84,83.07.54,47.87,2.4,96.45,8.5,141.5,25.62,37.7,14.33,77.9,40.12,92.94,79.5,14.08,36.87-6.34,69.8-37.31,89.63-35.51,22.74-79.41,32.33-120.87,36.21-47.81,4.47-96.49,1.63-143.76-6.4-92.3-15.68-180.39-51.51-261.13-98.32-42.87-24.86-86.11-50.92-126.58-79.55-44.09-31.19-88.38-68.61-113.27-117.55-12-23.67-18.36-50-16.09-76.57,2.78-32.64,18.25-62.77,38-88.36,44.86-58.1,109.54-91.8,177.42-116.07,72.73-26,148.42-42.55,223-62.24C-27.28,772,9.12,761.77,44.71,749.1c31.63-11.25,65-23.61,92.5-43.23,51.15-36.49,75.42-96.48,81.07-157.43,5.48-59-3.95-120.8-25.34-176-29.37-75.82-88.28-136.85-148.09-189.95-35-31-71.67-60.06-108.55-88.79-3-2.35-7.28,1.87-4.24,4.24Z"/></svg>