<svg id="Capa_1" data-name="Capa 1" xmlns="http://www.w3.org/2000/svg" viewBox="0 0 105.51 117.39"><defs><style>.cls-1{font-size:51.47px;fill:#333;font-family:Montserrat-Regular, Montserrat;}.cls-2{fill:none;stroke:#333;stroke-miterlimit:10;stroke-width:2px;}.cls-3{fill:#ffacad;}</style></defs><title>Ana &amp;amp; Benjie</title><text class="cls-1" transform="translate(21.98 74.91)">22</text><rect class="cls-2" x="1" y="1" width="103.51" height="115.39" rx="26.45"/><path class="cls-3" d="M-221.73,83.92C-145.91,143-67.2,203.91-10.14,282.27c39.59,54.37,61.88,117.12,68.27,183.94,6,62.9-1.74,131.92-40.51,184-21.38,28.69-50.35,46.71-82.6,61-34.53,15.35-70.6,27.11-106.86,37.63-76.87,22.31-155.38,38.67-231.83,62.48C-469.52,831.82-537.8,858-589.16,905.59c-46,42.65-83.71,102.54-70.51,167.55,10.95,53.94,51.25,97.55,92.24,131.66,37.24,31,78.55,55.9,119.73,81.15,32.66,20,65.23,39.78,99.63,56.78a810.33,810.33,0,0,0,131.64,51.82c88,25.69,186.29,37.25,276.3,15,35.88-8.86,75.55-24.11,98.72-54.52,20.44-26.86,18.65-60.39.91-88.13-21.78-34-58.68-55.34-96-68.29-46.2-16-95.67-21.37-144.28-23.28-46-1.81-91.44.23-137.24,4.47-117.09,10.83-235.31,29.27-347.92,63.73-50.3,15.4-101.64,34.14-145.3,64.1-16.86,11.58-32.75,25.14-44.65,41.91-15.51,21.87-21.92,49.54-19.07,76.09,4,36.82,24.16,69.71,48.09,97.09,29.81,34.1,66.82,61.84,105.34,85.33,78.85,48.09,166.26,80.26,246.41,126,36.61,20.91,71.89,44.63,101.94,74.41,2.74,2.72,7-1.52,4.24-4.24-61.52-61-142.92-97.81-220-134.65-81.26-38.82-166.24-77.82-228.31-145.19-26.13-28.37-49.28-63.68-52.05-103.18-1.86-26.48,5.83-52.88,22.38-73.63,28.84-36.14,74.4-58,116.29-75,54.44-22.07,111.62-37.27,168.93-49.75,58-12.61,116.58-22.21,175.42-29.59,43.77-5.49,87.76-10,131.84-12.07,27.65-1.29,55.42-.84,83.06.54,47.87,2.4,96.45,8.5,141.5,25.62,37.7,14.33,77.91,40.12,92.94,79.5,14.08,36.87-6.33,69.8-37.31,89.63-35.51,22.74-79.41,32.33-120.87,36.21-47.81,4.47-96.48,1.62-143.76-6.4-92.3-15.68-180.39-51.51-261.13-98.32-42.87-24.86-86.11-50.93-126.58-79.55-44.09-31.19-88.38-68.61-113.27-117.55-12-23.67-18.36-50-16.09-76.57,2.78-32.64,18.25-62.77,38-88.36,44.86-58.1,109.54-91.81,177.42-116.07,72.74-26,148.42-42.55,223-62.24,36.51-9.65,72.91-19.92,108.51-32.59,31.62-11.25,65-23.61,92.49-43.23,51.15-36.49,75.42-96.48,81.07-157.43,5.48-59-3.95-120.8-25.34-176-29.37-75.82-88.28-136.85-148.09-190-35-31-71.67-60.06-108.55-88.79-3-2.35-7.28,1.87-4.24,4.24Z"/></svg>