<svg id="Capa_1" data-name="Capa 1" xmlns="http://www.w3.org/2000/svg" viewBox="0 0 871.13 158.76"><defs><style>.cls-1{fill:#b2af80;}</style></defs><title>Ana &amp;amp; Benjie</title><path class="cls-1" d="M150.72,27.48c.39.13.49.39.29.78s-.55.56-1.27.49q-5.18-.29-10.45-.34t-11.87.25q-6.6.29-10.06.48c-2.32.14-6.08.36-11.29.69a3.57,3.57,0,0,0-1.22.24,2.19,2.19,0,0,0-.54,1c-.91,3-1.72,5.7-2.44,8.11L92.3,71.79Q85.57,94.7,81.85,107.1a13.33,13.33,0,0,1-.79,2.25.78.78,0,0,1-1,.39.74.74,0,0,1-.64-.88l.39-1.76q.78-2.64,2.64-9.13t2.84-10Q90.45,69.5,100.9,32.37a14.49,14.49,0,0,0,.48-2c0-.07,0-.1-.09-.1h-.74a5.71,5.71,0,0,0-.73.1L84,31.68q-15.93,1.47-24.72,3.81c-2.6.66-3.29,1.57-2.05,2.74a6.57,6.57,0,0,0,2.54,1.46c.13.07.13.14,0,.2a.39.39,0,0,1-.3.1,9.14,9.14,0,0,1-4.29-1.47Q52.93,37.16,54,35.2c.46-.71,1.63-1.37,3.52-2a68.44,68.44,0,0,1,8.6-1.76Q79,29.44,99.43,28.17,124,26.7,134.7,26.6q8.2,0,12.4.3A21.45,21.45,0,0,1,150.72,27.48Z"/><path class="cls-1" d="M125.71,82.39a.8.8,0,0,1,.29.78,4.33,4.33,0,0,1-.29.49,63.91,63.91,0,0,1-5.37,6.15,20,20,0,0,1-6.74,4.79q-3,1.17-4.5-.69c-1-1.23-1.24-2.93-.78-5.08a1.62,1.62,0,0,1,.2-.78c.06-.32,0-.52-.1-.58l-.3.39q-2.93,5.76-5,7.32-2.64,2-4.74.64a5.16,5.16,0,0,1-2.29-4.35q-.58-6.34,3.12-16.12a9.14,9.14,0,0,1,.59-1.27,1.25,1.25,0,0,1,1.71-.39c.75.33,1,.82.83,1.47a15.19,15.19,0,0,1-.59,1.56,42.34,42.34,0,0,0-3.12,12.6,9.42,9.42,0,0,0,.24,3,3.15,3.15,0,0,0,1.22,1.91c.59.39,1.4.09,2.45-.88q3.31-3,7-12.21c.39-.91,1.14-3,2.25-6.16a1.28,1.28,0,0,1,1.07-1,1.6,1.6,0,0,1,1.37.49,1.2,1.2,0,0,1,.29,1.37l-.49,1.22q-.28.73-.39.93a51.41,51.41,0,0,0-3.12,10.75c0,.71,0,1.46,0,2.24a2.69,2.69,0,0,0,.63,2,2,2,0,0,0,2.15.39q2.25-.58,5.57-3.81A53.16,53.16,0,0,0,124,83.85L125,82.58A.51.51,0,0,1,125.71,82.39Z"/><path class="cls-1" d="M185.3,82.29c.52,0,.55.33.1,1q-.19.28-.69.87-9.77,12.12-16.7,12.7-3.42.19-4.79-2.24t-.39-6.35A27.31,27.31,0,0,1,169.08,77q4.11-4.68,6.84-4.3a2,2,0,0,1,1.86,1.81,4.75,4.75,0,0,1-.3,2.88,11.48,11.48,0,0,1-.73,1.42,6.78,6.78,0,0,0-.68,1.42c-.1.32-.22.81-.35,1.46a1.79,1.79,0,0,0,.3,1.57.41.41,0,0,1-.15.48.53.53,0,0,1-.54.1,3,3,0,0,1-1.46-4.1c.13-.33.42-1,.88-1.91s.78-1.67,1-2.19.18-.69,0-.88-.51-.17-.83.09a28.62,28.62,0,0,0-6.65,7.33,21.6,21.6,0,0,0-3.32,8.89q-.58,4.4,2.54,4.2a9.07,9.07,0,0,0,2.74-.44A11.19,11.19,0,0,0,173,93.42c1-.65,1.77-1.17,2.39-1.56a16.11,16.11,0,0,0,2.54-2.2q1.62-1.6,2.1-2.1c.33-.32,1.06-1.12,2.2-2.39s1.74-1.94,1.81-2C184.55,82.58,185,82.29,185.3,82.29Z"/><path class="cls-1" d="M236.39,83l.39-.34a.53.53,0,0,1,.78,0,.68.68,0,0,1,.2.83.31.31,0,0,1-.2.29,60.62,60.62,0,0,1-5.66,6.65q-3.92,3.81-6.35,4.39c-2.61.65-4.37-.09-5.28-2.24a5.24,5.24,0,0,1-.49-1.81,12.34,12.34,0,0,1,.05-2.4c.1-.91.18-1.61.25-2.09s.21-1.28.44-2.35.34-1.68.34-1.81c.13-.52.32-1.41.58-2.68s.43-2.14.49-2.59q.3-1.36-.39-1.47c-.46-.06-.88.23-1.27.88l-1.71,2.69a22.37,22.37,0,0,0-1.32,2.2q-6.65,10.45-7.91,12.21a3,3,0,0,0-.34.44c-.17.23-.28.39-.34.49s-.18.24-.35.44a2.47,2.47,0,0,1-.44.43l-.43.35a1.17,1.17,0,0,1-.49.24,1,1,0,0,1-.54,0c-1.43-.19-2-1.43-1.56-3.71a38.89,38.89,0,0,1,3.9-11.33q-5.37,3.42-10.55,2.54a9.47,9.47,0,0,1-1.36-.3,13.69,13.69,0,0,1-.49,2.64,17.28,17.28,0,0,1-1.57,4q-2.93,5.37-6.64,5.47a4,4,0,0,1-3.47-1.37,7.28,7.28,0,0,1-1.41-4.2,13,13,0,0,1,1.9-7.72A7.6,7.6,0,0,1,191,77.6c.59-.06.95.29,1.08,1.07s-.1,1-.68,1.08c-2.16.19-3.78,1.61-4.89,4.25a11.18,11.18,0,0,0-.88,7.08,3,3,0,0,0,1.66,2.2,3,3,0,0,0,2.64-.44q3.23-1.95,5-7.62c.52-1.82.55-2.9.1-3.22-2.09-1.44-2.83-3.26-2.25-5.48A2,2,0,0,1,193.89,75c.65-.13,1.31.49,2,1.86a11.76,11.76,0,0,1,1.07,4.69,10.56,10.56,0,0,0,1.47.49,12.52,12.52,0,0,0,6.54-.88,14,14,0,0,0,5.86-4,1.22,1.22,0,0,1,1.67-.24,1.19,1.19,0,0,1,.68,1.51c-.2.39-.49.91-.88,1.56a51.3,51.3,0,0,0-4.69,10.85c-.26.78-.29,1.3-.1,1.56a.09.09,0,0,0,.1.1.4.4,0,0,0,.25-.15,3.43,3.43,0,0,0,.34-.44l8.59-13.77c.46-.78.74-1.24.83-1.37s.26-.39.49-.78a4.42,4.42,0,0,1,.59-.83c.16-.16.37-.41.63-.73s.48-.57.64-.74a8.44,8.44,0,0,1,.68-.58,4.15,4.15,0,0,1,.78-.49,4.6,4.6,0,0,1,.79-.25,1.93,1.93,0,0,1,.83,0c1.56.14,2.05,1.6,1.46,4.4-.19.91-.53,2.34-1,4.3s-.83,3.45-1,4.49a6.87,6.87,0,0,1-.15.78c-.09.46-.16.77-.19.93a6.75,6.75,0,0,0-.1.93c0,.46,0,.81,0,1.07v.93a2.59,2.59,0,0,0,.15.93,4.73,4.73,0,0,0,.39.78,3.75,3.75,0,0,0,.54.69q2.24,1.85,6.64-2.15A68.53,68.53,0,0,0,235.51,84Z"/><path class="cls-1" d="M269.12,82.68a.92.92,0,0,1,.09.39,1.7,1.7,0,0,1-.48.88c-1.18,1.56-2.12,2.77-2.84,3.61s-1.67,1.88-2.88,3.08a18.64,18.64,0,0,1-3.57,2.88A8,8,0,0,1,256.22,95a3.71,3.71,0,0,1-3.08-.73,5,5,0,0,1-1.61-2.79c-.39-2.15-.06-5.27,1-9.38A45.45,45.45,0,0,1,238.73,94.6a12.89,12.89,0,0,0-2.44,1.56c-.19.13-.19.46,0,1q4.2,12.49,3.52,22.56a8.66,8.66,0,0,1-.15,1.52q-.15.82-.39,2a10,10,0,0,1-.63,2,7.36,7.36,0,0,1-1,1.62,1.67,1.67,0,0,1-1.32.73,3.87,3.87,0,0,1-1.71-.49q-2.15-1.56-2.83-6.25a61.27,61.27,0,0,1,.29-14.85c.13-.78-.31-2-1.32-3.52s-1.25-2.83-.73-3.81a14.47,14.47,0,0,1,2.15-2.34,5.91,5.91,0,0,0,1.95-3,195.61,195.61,0,0,1,11.63-37.32q.39-1,2.83-6.15c.2-.46.34-.78.44-1a1.72,1.72,0,0,1,.59-.59,1.19,1.19,0,0,1,.93-.19c1.23.26,1.46,1.11.68,2.54q-10,17.88-15.24,41.81a1.9,1.9,0,0,0-.15,1.07c0,.53.25.72.64.59a34,34,0,0,0,9.77-6.54,37.6,37.6,0,0,0,7.32-9.09c.92-1.56,1.76-2.08,2.54-1.56s.75,1.4.1,2.83a28.67,28.67,0,0,0-2.83,10.06,4.52,4.52,0,0,0,.58,2.74,2.23,2.23,0,0,0,2.35.88,5.62,5.62,0,0,0,2.15-.88,25.75,25.75,0,0,0,2.88-2.2,25.2,25.2,0,0,0,2.2-2.1L266,85.22c1.2-1.43,1.9-2.28,2.1-2.54a.78.78,0,0,1,.49-.29C268.82,82.32,269,82.42,269.12,82.68Zm-37.81,17a2.34,2.34,0,0,0,.78,1.66c.2.13.33.16.39.1a6.85,6.85,0,0,0,.59-1.76c.19-.85.13-1.37-.2-1.57s-.68,0-1.07.44A1.39,1.39,0,0,0,231.31,99.68Zm6.55,19A60.2,60.2,0,0,0,235.32,101c-.2-.59-.4-.92-.59-1s-.23.2-.29.59a15.76,15.76,0,0,0-.39,2.54A76.93,76.93,0,0,0,233,117.16q.19,6.25,2.05,8.31c.52.58,1,.55,1.42-.1a7.26,7.26,0,0,0,.93-2.15A17.39,17.39,0,0,0,237.86,118.73Zm20.61-44.94a1.81,1.81,0,0,1-1.81.59q-.83-.3-1-1.62a5.44,5.44,0,0,1,.39-2.83,6.06,6.06,0,0,1,1.56-2.39A1.78,1.78,0,0,1,259.4,67c.55.2.87.73,1,1.61A6.32,6.32,0,0,1,260,71.4,5.75,5.75,0,0,1,258.47,73.79Z"/><path class="cls-1" d="M291.1,82.48c.13.2,0,.46-.3.79a8.67,8.67,0,0,1-6.25,2.83q-5.76-.1-3.81-9.67c.13-.78,0-1.24-.29-1.37-.65-.33-1.66.49-3,2.44A131.66,131.66,0,0,0,267.75,94c-.46.72-.9,1-1.32,1a1.69,1.69,0,0,1-1.12-.88c-.59-.91-.56-2.61.09-5.08a49.2,49.2,0,0,1,5-11.82c.19-.33.32-.55.39-.69a1.29,1.29,0,0,1,1.85-.34,1.23,1.23,0,0,1,.49,1.81,6,6,0,0,1-.68,1.37,44.38,44.38,0,0,0-3.52,7c-.52,1.31-.72,2-.58,2s.42-.13.68-.58a112.55,112.55,0,0,1,6.74-11.14,20.4,20.4,0,0,1,2.93-3.22,2.59,2.59,0,0,1,3.52-.49c.65.52.89,1.87.73,4a25.49,25.49,0,0,0,.05,5.33,2.42,2.42,0,0,0,1.66,1.85,4.26,4.26,0,0,0,2.64,0,8.44,8.44,0,0,0,2.54-1.32C290.48,82.42,290.9,82.29,291.1,82.48Z"/><path class="cls-1" d="M332.81,82.39c.52.32.55.81.1,1.46a56.85,56.85,0,0,1-8.6,9.09,8,8,0,0,1-5.18,2,3.39,3.39,0,0,1-3-1.52A7,7,0,0,1,315,89.81q0-1.36.15-3c.09-1.1.21-2,.34-2.78s.34-1.81.63-3.18.48-2.31.54-2.83a1.22,1.22,0,0,0-.1-1.12c-.19-.23-.52-.25-1-.05A11,11,0,0,0,313.18,80c-.46.78-1.49,2.61-3.08,5.47s-2.88,5-3.86,6.55a1.78,1.78,0,0,1-2,1c-1.36-.26-2-1.49-2-3.71a44.81,44.81,0,0,1,1-7.81c.06-.39.2-1,.39-2s.36-1.62.49-2.15a.53.53,0,0,0-.29-.53.48.48,0,0,0-.59.14,55.5,55.5,0,0,0-3.81,5.47q-.69,1.18-2.49,4.06L294.12,91c-.52.78-1.36,2-2.53,3.52A4.46,4.46,0,0,1,289.92,96a1.93,1.93,0,0,1-1.85.05A2,2,0,0,1,287,94.5a7.39,7.39,0,0,1,.2-3.32,48.79,48.79,0,0,1,4.69-11.92A6.89,6.89,0,0,1,293,77.6a1.16,1.16,0,0,1,1.71-.25A1.23,1.23,0,0,1,295.3,79c-.13.26-.46.84-1,1.76a43.71,43.71,0,0,0-4.69,10.84,2.11,2.11,0,0,0-.1,1.37c.26,0,.52-.2.78-.59q2-2.92,2.35-3.71c.32-.52,1.14-1.87,2.44-4.06s2.4-4,3.27-5.32,1.81-2.67,2.79-3.91q1.86-2.43,3.52-2.54a1.66,1.66,0,0,1,1.85.83,3.07,3.07,0,0,1,.29,2.3c-.13.52-.43,1.81-.92,3.86s-.83,3.74-1,5.08a27.36,27.36,0,0,0-.29,3.86c0,.71.11,1.09.34,1.12s.5-.28.83-.93c.45-.91,1.12-2.18,2-3.81s1.45-2.73,1.71-3.32a5.45,5.45,0,0,0,.54-.93l.73-1.37c.2-.35.47-.84.83-1.46s.69-1.16,1-1.61A15.76,15.76,0,0,1,313.61,75a7,7,0,0,1,1.23-1.22,9.71,9.71,0,0,1,1.22-.78,2.29,2.29,0,0,1,1.32-.29,2.62,2.62,0,0,1,1.27.44q1.46.87.68,4.49a8,8,0,0,0-.44,1.56c-.23,1-.44,1.91-.64,2.79s-.4,1.93-.63,3.17a18.16,18.16,0,0,0-.34,3.27,14.4,14.4,0,0,0,.24,2.69,2.34,2.34,0,0,0,3.18,2q2.34-.59,6-4.3.19-.19,5.08-5.86C332.13,82.45,332.48,82.26,332.81,82.39Z"/><path class="cls-1" d="M363.29,82.48c.32.27.29.66-.1,1.18-.13.13-.36.39-.68.78l-1.42,1.76-1.56,2q-.54.69-1.47,1.71a24.29,24.29,0,0,1-1.75,1.76A20.21,20.21,0,0,1,354.5,93a12.85,12.85,0,0,1-2.88,1.57,5.67,5.67,0,0,1-3.13.29,3,3,0,0,1-2.3-2,8.61,8.61,0,0,1-.34-1.08,5.1,5.1,0,0,1-.14-1.27,11.17,11.17,0,0,0,0-1.12,5.3,5.3,0,0,1,0-1.27c.06-.55.11-.94.14-1.17s.1-.64.2-1.22a6.08,6.08,0,0,1,.24-1.08c.07-.65.07-1,0-1s-.58.19-1.37,1S343.2,86.46,341.7,88l-3.42,3.42-.78.79-.93.92c-.16.17-.46.44-.88.83a12.65,12.65,0,0,1-1,.88c-.26.2-.59.43-1,.69s-.77.48-1.12.68a9.41,9.41,0,0,1-1,.49,3.4,3.4,0,0,1-2.83-.24,2.91,2.91,0,0,1-1.27-2.5,12.62,12.62,0,0,1,.88-4.59,29.9,29.9,0,0,1,5.91-9.52,17.5,17.5,0,0,1,8.84-5.72q3.12-.67,5.08,2.64a2.44,2.44,0,0,0,1.07.88,1.41,1.41,0,0,1,.93.73,2.2,2.2,0,0,1-.15,1.32,29.4,29.4,0,0,0-1.07,2.93c-.33,1-.67,2.3-1,3.76a10.63,10.63,0,0,0-.29,4,3.56,3.56,0,0,0,1.32,2.54q2.25,1.56,7.23-3a54.7,54.7,0,0,0,5.47-6.25c.39-.52.68-.9.88-1.13S363,82.22,363.29,82.48Zm-17.78-2a1.47,1.47,0,0,0,.39-.88,4.69,4.69,0,0,0-.49-2.15,1.63,1.63,0,0,0-1.56-1A4.77,4.77,0,0,0,342,77a19.7,19.7,0,0,0-6.93,5.67,30.07,30.07,0,0,0-4.69,8.21c-1,2.53-.95,3.71.1,3.51a.38.38,0,0,0,.29-.1,10.07,10.07,0,0,0,2.83-2Q336.82,89.51,345.51,80.53Z"/><path class="cls-1" d="M382.53,82.29c.53,0,.56.33.1,1-.13.19-.36.48-.68.87q-9.76,12.12-16.71,12.7-3.42.19-4.78-2.24t-.39-6.35A27.31,27.31,0,0,1,366.32,77q4.1-4.68,6.84-4.3A2,2,0,0,1,375,74.52a4.68,4.68,0,0,1-.29,2.88,13.1,13.1,0,0,1-.73,1.42,7.53,7.53,0,0,0-.69,1.42c-.1.32-.21.81-.34,1.46a1.82,1.82,0,0,0,.29,1.57.4.4,0,0,1-.14.48.54.54,0,0,1-.54.1,3,3,0,0,1-1.46-4.1c.12-.33.42-1,.87-1.91s.79-1.67,1-2.19.18-.69,0-.88-.5-.17-.83.09a28.76,28.76,0,0,0-6.64,7.33,21.46,21.46,0,0,0-3.32,8.89c-.39,2.93.45,4.33,2.54,4.2a9,9,0,0,0,2.73-.44,11.24,11.24,0,0,0,2.84-1.42c1-.65,1.77-1.17,2.39-1.56a16.58,16.58,0,0,0,2.54-2.2l2.1-2.1c.32-.32,1.06-1.12,2.2-2.39s1.74-1.94,1.81-2C381.78,82.58,382.21,82.29,382.53,82.29Z"/><path class="cls-1" d="M398.26,82.68a1,1,0,0,1-.19,1.17,8.48,8.48,0,0,0-.59.69q-2.06,2.53-3.22,3.9a36.34,36.34,0,0,1-3.18,3.18,19.16,19.16,0,0,1-3.86,2.78c-1.82.91-3.38.95-4.69.1s-2-2.34-2-4.49A29.59,29.59,0,0,1,383,78c.52-1.24,1.24-1.63,2.15-1.17s.81,1.4.1,3a16.94,16.94,0,0,0-1.17,2.88c-.39,1.2-.79,2.6-1.18,4.2a10.75,10.75,0,0,0-.29,4.2,2.22,2.22,0,0,0,1.66,2.1q2.44.58,6.74-3.52a50.35,50.35,0,0,0,5.67-6.35q.39-.48.78-.93C397.74,82.14,398,82.22,398.26,82.68Zm-10.65-8.89a1.79,1.79,0,0,1-1.8.59c-.56-.2-.9-.74-1-1.62a5.55,5.55,0,0,1,.39-2.83,6.06,6.06,0,0,1,1.56-2.39,1.79,1.79,0,0,1,1.81-.59c.55.2.88.73,1,1.61a6.46,6.46,0,0,1-.39,2.84A5.76,5.76,0,0,1,387.61,73.79Z"/><path class="cls-1" d="M421.22,82.09a.67.67,0,0,1,.59.3.79.79,0,0,1,.09.68.3.3,0,0,0-.09.2,12.55,12.55,0,0,1-3.18,2.1,14.33,14.33,0,0,1-4.1,1.12,6.87,6.87,0,0,1-4.35-.88c-.65-.26-1-.19-1.17.2a21.68,21.68,0,0,1-1.47,3.71q-2.93,5.37-6.64,5.47a4,4,0,0,1-3.47-1.42A7.28,7.28,0,0,1,396,89.42a13,13,0,0,1,1.9-7.72,7.59,7.59,0,0,1,5.81-4.1c.59-.06.95.29,1.08,1.07s-.1,1-.69,1.08c-2.15.13-3.77,1.53-4.88,4.2a11.35,11.35,0,0,0-.88,7.13A3,3,0,0,0,400,93.23a2.87,2.87,0,0,0,2.64-.39q3.22-1.95,5-7.62a2.43,2.43,0,0,0-.49-2.15,8.69,8.69,0,0,1-1.46-6.35c.13-1,.45-1.63,1-1.76s1.3.49,2,1.86a9.63,9.63,0,0,1,1,5.08,2.6,2.6,0,0,0,1.86,2.83q4.11,1.47,8.79-2A2.91,2.91,0,0,1,421.22,82.09Zm-16.12-8a.47.47,0,0,1-.39.34.51.51,0,0,1-.49-.14.94.94,0,0,1-.29-.69,2.43,2.43,0,0,1,.29-1.46,12.83,12.83,0,0,1,3.13-4.79c.71-.65,1.3-.75,1.76-.29s.45,1-.2,1.46Q405.49,71,405.1,74.08Z"/><path class="cls-1" d="M449.26,83l.39-.34a.53.53,0,0,1,.78,0,.84.84,0,0,1,.29.83.58.58,0,0,1-.29.29,61.6,61.6,0,0,1-5.67,6.65q-3.9,3.81-6.35,4.39c-2.6.65-4.36-.09-5.27-2.24a4.83,4.83,0,0,1-.49-1.81,11.6,11.6,0,0,1,.05-2.4c.09-.91.17-1.61.24-2.09s.21-1.28.44-2.35a14.84,14.84,0,0,1,.44-1.81c.06-.52.23-1.43.49-2.73s.42-2.15.49-2.54q.29-1.36-.39-1.47c-.46-.06-.88.23-1.27.88s-.88,1.42-1.66,2.69l-1.37,2.2q-6.64,10.45-7.92,12.21c-.06.06-.17.21-.34.44l-.34.49-.34.44a2.47,2.47,0,0,1-.44.43l-.44.35a1.12,1.12,0,0,1-.49.24,1,1,0,0,1-.54,0q-2.14-.28-1.56-3.71a43.2,43.2,0,0,1,5.18-13.68,5.72,5.72,0,0,1,.78-1.17A1.39,1.39,0,0,1,426,78.38a9.46,9.46,0,0,1-.79,1.56,48.31,48.31,0,0,0-4.78,10.85c-.26.78-.3,1.3-.1,1.56.06.07.11.1.15.1s.09,0,.19-.15a2.71,2.71,0,0,0,.34-.44q.59-.78,8.6-13.77c.45-.78.73-1.24.83-1.37s.26-.39.49-.78a4.48,4.48,0,0,1,.58-.83,8.16,8.16,0,0,0,.64-.73,5.86,5.86,0,0,1,.68-.74c.2-.16.43-.35.69-.58a2.82,2.82,0,0,1,.73-.49,4.77,4.77,0,0,1,.78-.25,1.93,1.93,0,0,1,.83,0c1.57.14,2.05,1.6,1.47,4.4-.2.91-.53,2.34-1,4.3s-.78,3.45-1,4.49a2.13,2.13,0,0,0-.19.78q-.1.69-.15.93c0,.16-.08.48-.15.93a8.76,8.76,0,0,0-.09,1.07v.93a2.84,2.84,0,0,0,.14.93,4.73,4.73,0,0,0,.39.78,4.86,4.86,0,0,0,.54.69q2.25,1.85,6.65-2.15a58.8,58.8,0,0,0,6-6.45Z"/><path class="cls-1" d="M512.17,82.68c.06.13,0,.33-.2.59a57.18,57.18,0,0,1-8.5,9.18q-6.64,5.37-11.62,4.1-5.48-1.36-4-8.69a22.15,22.15,0,0,1,4.79-9.48q5-6.34,9.38-5.67a2.3,2.3,0,0,1,1.8,1.27,3.21,3.21,0,0,1,.05,2.54,13.09,13.09,0,0,1-4.29,6A10.72,10.72,0,0,1,493,85.32a3.1,3.1,0,0,1-.68-.1,1,1,0,0,0-1.18.68,24.6,24.6,0,0,0-.83,2.64,19.75,19.75,0,0,0-.48,3,4,4,0,0,0,.63,2.74,3,3,0,0,0,2.44,1.22q5.18.48,11.63-5.67a82,82,0,0,0,6.35-6.94,1.3,1.3,0,0,1,.58-.48C511.87,82.26,512.1,82.35,512.17,82.68Zm-19.35.19c-.19.4-.06.59.4.59a5.83,5.83,0,0,0,2.54-.68,14.33,14.33,0,0,0,5.76-5.38A4.56,4.56,0,0,0,502.2,76a1.86,1.86,0,0,0,.2-1.22q-.11-.73-.78-.54a5.28,5.28,0,0,0-2.05,1,27.79,27.79,0,0,0-6.45,7A2.67,2.67,0,0,0,492.82,82.87Z"/><path class="cls-1" d="M532,82.29c.19.26.1.58-.3,1-.13.13-.58.52-1.36,1.17q-8.42,7.23-9.38,8.11c-.13.06-.2.14-.2.24a.54.54,0,0,0,0,.24,2.5,2.5,0,0,0,.25.35,5.79,5.79,0,0,0,.39.44c.45.71.29,1.82-.49,3.32a15,15,0,0,1-3.67,4.39,11.5,11.5,0,0,1-4.73,2.74,1.81,1.81,0,0,1-1.86-.49,1.52,1.52,0,0,1-.39-1.76q1.08-2.53,6-7.42c.19-.2.42-.46.68-.78.07-.26-.16-.49-.68-.69h-.1a24.63,24.63,0,0,1-3.61-1.27,4.82,4.82,0,0,1-2.74-4.2c-.13-2.15.82-4.75,2.83-7.81a31.26,31.26,0,0,1,7.23-8,5,5,0,0,1,3.77-1.42c1.13.16,1.57,1,1.31,2.59a7.75,7.75,0,0,1-1,2.83,15.71,15.71,0,0,1-1.08,1.91c-.58.94-1,1.72-1.37,2.34a19.36,19.36,0,0,0-1,2.25,5.64,5.64,0,0,0-.39,2.49,4.24,4.24,0,0,0,.68,2q.3.39,0,.63a1.74,1.74,0,0,1-.59.35,1.43,1.43,0,0,1-1.36-.69,5.17,5.17,0,0,1-1-3.32A7.94,7.94,0,0,1,519,80.34c.25-.46.63-1.14,1.12-2.06s.86-1.56,1.12-2a10.4,10.4,0,0,0,.64-1.12c.09-.23.21-.48.34-.74a.87.87,0,0,0,.14-.58c0-.13-.14-.2-.34-.2s-.88.43-1.85,1.27a29.9,29.9,0,0,0-7.13,9.09q-2.35,4.68.29,6a30.78,30.78,0,0,0,5,1.57,1.78,1.78,0,0,0,1.76-.39q4.59-4,9.77-8c.71-.52,1.14-.85,1.27-1C531.51,82,531.8,82,532,82.29ZM518.32,97.53a3.92,3.92,0,0,0,1.08-1.76,1.48,1.48,0,0,0-.3-.83.42.42,0,0,0-.68-.15,26.85,26.85,0,0,0-5.57,6.35c-.33.65-.29,1,.1.88a.7.7,0,0,0,.29-.1A18.27,18.27,0,0,0,518.32,97.53Z"/><path class="cls-1" d="M587.78,82.68a1,1,0,0,1-.2,1.17,8.93,8.93,0,0,0-.58.69q-2.06,2.53-3.23,3.9a36,36,0,0,1-3.17,3.18,19.44,19.44,0,0,1-3.86,2.78c-1.83.91-3.39.95-4.69.1s-2-2.34-2-4.49a29.43,29.43,0,0,1,2.54-12c.52-1.24,1.23-1.63,2.15-1.17s.81,1.4.09,3a16.94,16.94,0,0,0-1.17,2.88q-.58,1.8-1.17,4.2a10.56,10.56,0,0,0-.29,4.2,2.21,2.21,0,0,0,1.66,2.1c1.63.39,3.87-.78,6.74-3.52a49.56,49.56,0,0,0,5.66-6.35c.26-.32.53-.63.79-.93S587.52,82.22,587.78,82.68Zm-10.65-8.89a1.81,1.81,0,0,1-1.81.59q-.83-.3-1-1.62a5.55,5.55,0,0,1,.39-2.83,6.06,6.06,0,0,1,1.56-2.39,1.78,1.78,0,0,1,1.81-.59c.55.2.88.73,1,1.61a6.32,6.32,0,0,1-.39,2.84A5.75,5.75,0,0,1,577.13,73.79Z"/><path class="cls-1" d="M629.1,82.39c.52.32.55.81.1,1.46a56.85,56.85,0,0,1-8.6,9.09,8,8,0,0,1-5.18,2,3.39,3.39,0,0,1-3-1.52,6.94,6.94,0,0,1-1.12-3.66q0-1.36.15-3c.09-1.1.21-2,.34-2.78s.34-1.81.63-3.18.48-2.31.54-2.83a1.22,1.22,0,0,0-.1-1.12c-.19-.23-.52-.25-1-.05A11.11,11.11,0,0,0,609.46,80c-.45.78-1.48,2.61-3.07,5.47s-2.88,5-3.86,6.55a1.78,1.78,0,0,1-2,1c-1.36-.26-2.05-1.49-2.05-3.71a44.81,44.81,0,0,1,1-7.81c.06-.39.19-1,.39-2s.36-1.62.49-2.15a.53.53,0,0,0-.29-.53.48.48,0,0,0-.59.14,55.5,55.5,0,0,0-3.81,5.47q-.69,1.18-2.49,4.06L590.41,91c-.52.78-1.36,2-2.54,3.52A4.36,4.36,0,0,1,586.21,96a1.93,1.93,0,0,1-1.85.05,2,2,0,0,1-1.08-1.51,7.39,7.39,0,0,1,.2-3.32,48.79,48.79,0,0,1,4.69-11.92,6.89,6.89,0,0,1,1.07-1.66,1.16,1.16,0,0,1,1.71-.25,1.23,1.23,0,0,1,.64,1.62c-.13.26-.46.84-1,1.76a43.71,43.71,0,0,0-4.69,10.84,2.11,2.11,0,0,0-.1,1.37c.26,0,.52-.2.79-.59q1.95-2.92,2.34-3.71c.32-.52,1.14-1.87,2.44-4.06s2.39-4,3.27-5.32,1.81-2.67,2.79-3.91q1.86-2.43,3.52-2.54a1.66,1.66,0,0,1,1.85.83,3.07,3.07,0,0,1,.29,2.3c-.13.52-.43,1.81-.92,3.86s-.83,3.74-1,5.08a27.36,27.36,0,0,0-.29,3.86c0,.71.11,1.09.34,1.12s.5-.28.83-.93c.46-.91,1.12-2.18,2-3.81s1.45-2.73,1.71-3.32a5.45,5.45,0,0,0,.54-.93L607,79.5c.2-.35.47-.84.83-1.46s.69-1.16,1-1.61A15.76,15.76,0,0,1,609.9,75a7,7,0,0,1,1.23-1.22,9.71,9.71,0,0,1,1.22-.78,2.29,2.29,0,0,1,1.32-.29,2.62,2.62,0,0,1,1.27.44q1.45.87.68,4.49a8,8,0,0,0-.44,1.56c-.23,1-.44,1.91-.64,2.79s-.4,1.93-.63,3.17a18.16,18.16,0,0,0-.34,3.27,14.4,14.4,0,0,0,.24,2.69,2.34,2.34,0,0,0,3.18,2q2.34-.59,6-4.3.19-.19,5.08-5.86C628.42,82.45,628.77,82.26,629.1,82.39Z"/><path class="cls-1" d="M656.26,82.39c.84.06,1.24.39,1.17,1a1.76,1.76,0,0,1-.19.3.45.45,0,0,1-.3.09h-.39a4.26,4.26,0,0,1-.54,0,3.62,3.62,0,0,0-.63,0,40.89,40.89,0,0,0-8.21.39c-.71.13-1.33.81-1.85,2a36.34,36.34,0,0,1-5.86,9.28,18,18,0,0,1-5.77,4.49,3.57,3.57,0,0,1-2.49.49,2,2,0,0,1-1.81-1.56,5.78,5.78,0,0,1,.93-4.79,26.23,26.23,0,0,1,3.76-4.79A26,26,0,0,1,643,83.75a1.46,1.46,0,0,0,1-1,13.46,13.46,0,0,0,.34-1.76c.1-.72.16-1.52.2-2.39a3.47,3.47,0,0,0-.49-2.11,1.24,1.24,0,0,0-1.61-.39,11.9,11.9,0,0,0-5.28,4.11,53.43,53.43,0,0,0-9.18,15.92q-.58,1.47-2.35,8-.68,2.83-6.44,24.91c-.26.91-.43,1.47-.49,1.66a3.34,3.34,0,0,1-.39,1,1,1,0,0,1-1.13.39,1,1,0,0,1-.83-.88,9.32,9.32,0,0,1,.3-1.76q5.37-21.19,7-27.84,0-.09,6.45-25.59a7,7,0,0,1,.29-1.18,1.37,1.37,0,0,1,1.76-1,1.31,1.31,0,0,1,1.07,1.56,9.31,9.31,0,0,1-.29,1.37c-.85,3.12-1.37,5.05-1.56,5.76-.07.13-.05.21,0,.25a.23.23,0,0,0,.24,0c.26-.33.65-.88,1.17-1.66.46-.59.91-1.19,1.37-1.81a21.51,21.51,0,0,1,1.76-2,17.2,17.2,0,0,1,2.2-2,15.36,15.36,0,0,1,2.29-1.41,5.32,5.32,0,0,1,2.4-.59,4.25,4.25,0,0,1,2.29.68,6.36,6.36,0,0,1,1.27,1.27A3.49,3.49,0,0,1,647,77c.06.69.1,1.23.1,1.62s-.05,1-.15,2-.15,1.47-.15,1.66.16.46.49.39A53.81,53.81,0,0,1,656.26,82.39Zm-13.87,4.39a1.93,1.93,0,0,0,.19-.88c0-.32-.23-.39-.68-.19a19.23,19.23,0,0,0-9.67,9.08,6.88,6.88,0,0,0-1,2.54c-.2,1.57.94,1.4,3.42-.49a4,4,0,0,0,.78-.58A31.18,31.18,0,0,0,642.39,86.78Z"/><path class="cls-1" d="M703.25,82.48c.13.2,0,.46-.3.79A8.83,8.83,0,0,1,696.7,86q-5.76,0-3.81-9.57c.13-.85.07-1.34-.19-1.47-.72-.26-1.76.56-3.13,2.44A139,139,0,0,0,679.9,94c-.46.72-.9,1-1.32,1a1.69,1.69,0,0,1-1.12-.88c-.59-.91-.56-2.61.1-5.08a47.11,47.11,0,0,1,3.8-9.67c-4.36,3-8.36,4.17-12,3.51a2.37,2.37,0,0,1-.88-.19,12.33,12.33,0,0,1-.49,2.74,17,17,0,0,1-1.56,4.1q-2.94,5.37-6.65,5.47a4.24,4.24,0,0,1-3.46-1.47,7,7,0,0,1-1.42-4.1,13,13,0,0,1,1.91-7.72,7.59,7.59,0,0,1,5.81-4.1c.58-.06.94.29,1.07,1.07s-.09,1-.68,1c-2.15.2-3.78,1.61-4.89,4.25a11.42,11.42,0,0,0-.87,7.18,3,3,0,0,0,1.66,2.15,2.85,2.85,0,0,0,2.63-.39q3.22-1.95,5-7.62c.52-1.82.55-2.93.09-3.32a4.66,4.66,0,0,1-2.24-5.47c.19-.85.6-1.34,1.22-1.47s1.25.49,1.9,1.86a11.73,11.73,0,0,1,1.08,4.59,5.11,5.11,0,0,0,1,.29q4.69.78,10.36-2.83a12.93,12.93,0,0,0,3-2.35,1.26,1.26,0,0,1,1.85-.43,1.29,1.29,0,0,1,.59,1.8q-.2.39-.78,1.47a51.85,51.85,0,0,0-3.42,6.93c-.59,1.37-.81,2.09-.68,2.15s.42-.13.68-.58a98.46,98.46,0,0,1,6.74-11.14,25.31,25.31,0,0,1,2.93-3.32,2.51,2.51,0,0,1,3.52-.39c.65.45.89,1.79.73,4a25.93,25.93,0,0,0,0,5.38,2.38,2.38,0,0,0,1.66,1.75,4.4,4.4,0,0,0,2.64,0A7.67,7.67,0,0,0,702,82.87C702.63,82.35,703.05,82.22,703.25,82.48Z"/><path class="cls-1" d="M734.41,60.41a.86.86,0,0,0,.34.09,3.25,3.25,0,0,1,.44,0,.55.55,0,0,1,.39.2.16.16,0,0,1,0,.24c0,.2-.62.23-1.85.1A163.59,163.59,0,0,0,713,60.6c-1.17,0-1.86.26-2,.78a1.48,1.48,0,0,1-.15.54c-.1.23-.18.41-.25.54q-3.32,10.35-4.68,16.8-3.52,17.19.29,17.88c1.1.19,2.57-.72,4.39-2.74a76,76,0,0,0,7.82-10.55c.46-.71.78-1.2,1-1.46a.47.47,0,0,1,.63-.1.56.56,0,0,1,.34.49,6.77,6.77,0,0,1-.48,1,3.1,3.1,0,0,0-.49.69c-1.57,2.47-2.85,4.43-3.86,5.86a62.07,62.07,0,0,1-3.91,4.88,11.56,11.56,0,0,1-4,3.32q-2.92,1.08-4.34-.63T702,92.5c.06-2.45.18-4.38.34-5.82s.41-3,.73-4.59q1.66-8.49,4.69-19.05a3,3,0,0,0,.2-.53c.06-.23.13-.46.19-.69a1.89,1.89,0,0,0,.1-.54c.13-.39-.23-.55-1.07-.48l-8.8.48q-9.47.88-13.38,2.45-1.08.39-1.08-.78a1.81,1.81,0,0,1,.59-1.47q1.17-1,5.77-1.47,7.82-.78,17.29-.87c.91,0,1.46-.3,1.66-.88.91-2.8,1.89-5.64,2.93-8.5a3.25,3.25,0,0,1,.58-1.27,1.22,1.22,0,0,1,1.57-.39,1.23,1.23,0,0,1,.88,1.36,8.71,8.71,0,0,1-.4,1.27q-.39,1.27-1.26,3.57t-1.08,2.88a4.31,4.31,0,0,0-.39,1.08c-.13.39,0,.63.29.73a4.46,4.46,0,0,0,1.27.15h.2A165.26,165.26,0,0,1,734.41,60.41Z"/><path class="cls-1" d="M750.63,82.48c.32.27.29.66-.1,1.18-.13.13-.36.39-.68.78l-1.42,1.76c-.68.84-1.21,1.5-1.56,2s-.85,1-1.47,1.71a24.28,24.28,0,0,1-1.76,1.76,18.72,18.72,0,0,1-1.8,1.41A12.92,12.92,0,0,1,739,94.6a5.63,5.63,0,0,1-3.12.29,3,3,0,0,1-2.3-2,8.61,8.61,0,0,1-.34-1.08,5.08,5.08,0,0,1-.15-1.27,8.81,8.81,0,0,0,0-1.12,6.63,6.63,0,0,1,0-1.27l.15-1.17c0-.23.1-.64.2-1.22a4.62,4.62,0,0,1,.24-1.08c.06-.65.06-1,0-1s-.59.19-1.37,1S730.54,86.46,729,88l-3.42,3.42-.78.79-.93.92c-.16.17-.46.44-.88.83a12.47,12.47,0,0,1-1,.88c-.26.2-.58.43-1,.69s-.77.48-1.13.68a8.52,8.52,0,0,1-1,.49,3.43,3.43,0,0,1-2.84-.24,2.93,2.93,0,0,1-1.27-2.5,12.83,12.83,0,0,1,.88-4.59,30.26,30.26,0,0,1,5.91-9.52,17.52,17.52,0,0,1,8.85-5.72q3.12-.67,5.08,2.64a2.39,2.39,0,0,0,1.07.88,1.41,1.41,0,0,1,.93.73,2.2,2.2,0,0,1-.15,1.32,29.4,29.4,0,0,0-1.07,2.93c-.33,1-.67,2.3-1,3.76a10.43,10.43,0,0,0-.29,4,3.56,3.56,0,0,0,1.32,2.54q2.25,1.56,7.23-3A55.72,55.72,0,0,0,749,83.56c.39-.52.68-.9.88-1.13S750.3,82.22,750.63,82.48Zm-17.78-2a1.47,1.47,0,0,0,.39-.88,4.69,4.69,0,0,0-.49-2.15,1.64,1.64,0,0,0-1.56-1,4.77,4.77,0,0,0-1.86.49,19.61,19.61,0,0,0-6.93,5.67,30.07,30.07,0,0,0-4.69,8.21c-1,2.53-1,3.71.09,3.51a.4.4,0,0,0,.3-.1,10.07,10.07,0,0,0,2.83-2Q724.16,89.51,732.85,80.53Z"/><path class="cls-1" d="M778.18,83l.39-.34a.53.53,0,0,1,.78,0,.84.84,0,0,1,.29.83.58.58,0,0,1-.29.29,61.6,61.6,0,0,1-5.67,6.65q-3.9,3.81-6.35,4.39c-2.6.65-4.36-.09-5.27-2.24a5,5,0,0,1-.49-1.81,11.6,11.6,0,0,1,0-2.4c.09-.91.18-1.61.24-2.09s.21-1.28.44-2.35a17.36,17.36,0,0,1,.44-1.81c.06-.52.23-1.43.49-2.73s.42-2.15.49-2.54q.28-1.36-.39-1.47c-.46-.06-.88.23-1.27.88s-.88,1.42-1.66,2.69L759,81.12q-6.64,10.45-7.92,12.21c-.06.06-.17.21-.34.44l-.34.49c-.06.09-.18.24-.34.44a2.47,2.47,0,0,1-.44.43l-.44.35a1.12,1.12,0,0,1-.49.24,1,1,0,0,1-.53,0Q746,95.39,746.62,92a43.2,43.2,0,0,1,5.18-13.68,6.17,6.17,0,0,1,.78-1.17,1.39,1.39,0,0,1,2.35,1.27,9.46,9.46,0,0,1-.79,1.56,48.31,48.31,0,0,0-4.78,10.85c-.26.78-.3,1.3-.1,1.56.06.07.11.1.15.1s.09,0,.19-.15a2.71,2.71,0,0,0,.34-.44q.59-.78,8.6-13.77c.45-.78.73-1.24.83-1.37s.26-.39.49-.78a4.48,4.48,0,0,1,.58-.83,8.16,8.16,0,0,0,.64-.73,5.86,5.86,0,0,1,.68-.74c.2-.16.43-.35.69-.58a2.82,2.82,0,0,1,.73-.49,4.77,4.77,0,0,1,.78-.25,1.93,1.93,0,0,1,.83,0c1.57.14,2.05,1.6,1.47,4.4-.2.91-.52,2.34-1,4.3s-.78,3.45-1,4.49a2.13,2.13,0,0,0-.19.78q-.11.69-.15.93c0,.16-.08.48-.15.93a8.76,8.76,0,0,0-.09,1.07v.93a2.84,2.84,0,0,0,.14.93,4.12,4.12,0,0,0,.4.78,4.19,4.19,0,0,0,.53.69q2.25,1.85,6.65-2.15A58.8,58.8,0,0,0,777.39,84Z"/><path class="cls-1" d="M810.22,60.41a.82.82,0,0,0,.34.09,3.25,3.25,0,0,1,.44,0,.55.55,0,0,1,.39.2.18.18,0,0,1,0,.24c0,.2-.62.23-1.86.1a163.5,163.5,0,0,0-20.71-.49c-1.17,0-1.85.26-2.05.78a1.64,1.64,0,0,1-.14.54c-.1.23-.18.41-.25.54q-3.32,10.35-4.69,16.8-3.51,17.19.3,17.88c1.1.19,2.57-.72,4.39-2.74a76,76,0,0,0,7.82-10.55c.45-.71.78-1.2,1-1.46a.48.48,0,0,1,.64-.1.56.56,0,0,1,.34.49,6.12,6.12,0,0,1-.49,1,3.94,3.94,0,0,0-.49.69c-1.56,2.47-2.85,4.43-3.85,5.86a62.07,62.07,0,0,1-3.91,4.88,11.66,11.66,0,0,1-4,3.32q-2.93,1.08-4.35-.63t-1.32-5.37c.07-2.45.18-4.38.35-5.82s.4-3,.73-4.59q1.67-8.49,4.69-19.05a3.09,3.09,0,0,0,.19-.53c.07-.23.13-.46.2-.69a2.32,2.32,0,0,0,.1-.54q.19-.59-1.08-.48l-8.79.48c-6.31.59-10.78,1.41-13.38,2.45q-1.08.39-1.08-.78a1.81,1.81,0,0,1,.59-1.47q1.17-1,5.76-1.47,7.82-.78,17.29-.87c.92,0,1.47-.3,1.67-.88.91-2.8,1.88-5.64,2.92-8.5a3.26,3.26,0,0,1,.59-1.27,1.2,1.2,0,0,1,1.56-.39,1.22,1.22,0,0,1,.88,1.36,7.43,7.43,0,0,1-.39,1.27c-.26.85-.68,2-1.27,3.57s-.94,2.49-1.07,2.88a4,4,0,0,0-.39,1.08c-.13.39,0,.63.29.73a4.46,4.46,0,0,0,1.27.15h.2A165.26,165.26,0,0,1,810.22,60.41Z"/><path class="cls-1" d="M817.45,82.68c.06.13,0,.33-.2.59a57.18,57.18,0,0,1-8.5,9.18q-6.64,5.37-11.62,4.1-5.48-1.36-4-8.69a22.15,22.15,0,0,1,4.79-9.48q5-6.34,9.38-5.67A2.33,2.33,0,0,1,809.1,74a3.26,3.26,0,0,1,0,2.54,13.09,13.09,0,0,1-4.29,6,10.72,10.72,0,0,1-6.55,2.79,3.19,3.19,0,0,1-.68-.1,1,1,0,0,0-1.18.68,24.6,24.6,0,0,0-.83,2.64,19.72,19.72,0,0,0-.49,3,4.07,4.07,0,0,0,.64,2.74,3,3,0,0,0,2.44,1.22q5.17.48,11.63-5.67a83.73,83.73,0,0,0,6.35-6.94,1.3,1.3,0,0,1,.58-.48C817.15,82.26,817.38,82.35,817.45,82.68Zm-19.34.19c-.2.4-.07.59.39.59a5.76,5.76,0,0,0,2.53-.68,14.29,14.29,0,0,0,5.77-5.38,4.56,4.56,0,0,0,.68-1.36,1.86,1.86,0,0,0,.2-1.22q-.1-.73-.78-.54a5.28,5.28,0,0,0-2,1,27.79,27.79,0,0,0-6.45,7A2.25,2.25,0,0,0,798.11,82.87Z"/></svg>