<svg id="Capa_1" data-name="Capa 1" xmlns="http://www.w3.org/2000/svg" viewBox="0 0 145.15 87"><defs><style>.cls-1{fill:#ffacad;}.cls-2{fill:#b2af80;}</style></defs><title>Ana &amp;amp; Benjie</title><path class="cls-1" d="M428.58-1277.26c75.82,59.08,154.53,120,211.58,198.35,39.59,54.37,61.89,117.12,68.28,183.94,6,62.9-1.75,131.93-40.52,184-21.38,28.69-50.35,46.71-82.59,61-34.54,15.35-70.6,27.11-106.86,37.63-76.88,22.3-155.38,38.67-231.84,62.48-65.84,20.51-134.13,46.65-185.49,94.28C15.16-412.94-22.57-353-9.37-288c11,53.94,51.25,97.56,92.25,131.66,37.23,31,78.55,55.91,119.72,81.15,32.67,20,65.24,39.78,99.64,56.78A810,810,0,0,0,433.88,33.37c88,25.7,186.29,37.25,276.29,15,35.89-8.86,75.56-24.1,98.72-54.52,20.45-26.85,18.66-60.39.91-88.13-21.78-34-58.67-55.34-96-68.29-46.2-16-95.67-21.37-144.29-23.28-46-1.81-91.43.24-137.23,4.47C315.19-170.51,197-152.08,84.35-117.61,34.05-102.22-17.29-83.48-60.94-53.51-77.81-41.94-93.69-28.38-105.59-11.6c-15.51,21.86-21.92,49.53-19.07,76.08,4,36.83,24.16,69.72,48.08,97.09,29.82,34.1,66.82,61.84,105.35,85.34,78.84,48.09,166.26,80.25,246.4,126,36.62,20.92,71.9,44.64,101.94,74.41,2.75,2.73,7-1.52,4.25-4.24-61.53-61-142.93-97.81-220.06-134.65C80,269.64-4.93,230.64-67,163.26c-26.14-28.36-49.28-63.67-52.06-103.18-1.86-26.47,5.83-52.87,22.39-73.62,28.84-36.14,74.39-58,116.28-75,54.44-22.08,111.62-37.28,168.94-49.75C246.5-150.9,305.13-160.5,364-167.88c43.76-5.48,87.76-10,131.83-12.07,27.66-1.29,55.43-.84,83.07.55,47.86,2.39,96.45,8.49,141.5,25.61,37.69,14.33,77.9,40.13,92.94,79.5C827.39-37.42,807-4.49,776,15.35c-35.5,22.73-79.4,32.33-120.87,36.2-47.8,4.48-96.48,1.63-143.75-6.4C419.07,29.48,331-6.35,250.23-53.17c-42.86-24.85-86.1-50.92-126.57-79.54C79.56-163.9,35.28-201.33,10.38-250.27c-12-23.67-18.35-50-16.08-76.56,2.78-32.65,18.25-62.77,38-88.37C77.18-473.29,141.86-507,209.74-531.26c72.73-26,148.42-42.56,223-62.25,36.52-9.64,72.92-19.91,108.51-32.58,31.62-11.26,65-23.62,92.49-43.24,51.15-36.49,75.42-96.48,81.08-157.43,5.48-59-3.95-120.79-25.34-176-29.38-75.83-88.28-136.85-148.1-190-35-31-71.67-60.07-108.54-88.8-3-2.35-7.29,1.87-4.24,4.24Z"/><path class="cls-2" d="M73.81,1.94a.86.86,0,0,1,.88-.1.65.65,0,0,1,.39.79,6.22,6.22,0,0,1-.49,1.46Q71,13.86,64.43,33.69a17.34,17.34,0,0,1-.58,2c-.26.75-.61,1.81-1,3.18s-.75,2.49-1,3.37-.31,1.35-.24,1.42a8.27,8.27,0,0,1,4.05,2,6.11,6.11,0,0,1,1.62,4.1,1.41,1.41,0,0,1-.79,1.47q-.39.2-.48-.39a.39.39,0,0,1-.1-.3c-.13-2.86-1.57-4.49-4.3-4.88-.52-.06-.82.13-.88.59-.07.13-.39,1.2-1,3.22q-4.4,15.83-4.2,24.91.1,6.65,3.81,8.11c.85.32.78.75-.19,1.27a1.07,1.07,0,0,1-.59.2,3.87,3.87,0,0,1-3.22-.79,5.52,5.52,0,0,1-1.76-3A22.21,22.21,0,0,1,53,76.58a24.56,24.56,0,0,1-.05-3.32q.3-10.17,4.89-25.7.28-1.06.39-1.56c.13-.59-.07-.88-.59-.88q-9.77-.67-23.93,3.23a.3.3,0,0,1-.2.09h-.19a8.87,8.87,0,0,0-2.3.83,7,7,0,0,0-.73,1.91q-4.69,16.41-8.89,29.31c-.33,1-.91,2.57-1.76,4.78a3.28,3.28,0,0,1-.88,1.47.69.69,0,0,1-.83.19.94.94,0,0,1-.53-.78,2,2,0,0,1,.09-.58,6.56,6.56,0,0,0,0-4.2,12.19,12.19,0,0,0-2.68-4.5q-2-2.25-3.33-3.52c-.87-.84-2.06-1.89-3.56-3.12-.33-.26-.59-.46-.78-.59a16.08,16.08,0,0,0-1.52-1l-1.9-1.18a16.73,16.73,0,0,1-1.81-1.27A6.44,6.44,0,0,1,.44,64.71,2.71,2.71,0,0,1,0,63.05a3.73,3.73,0,0,1,.74-1.91A20.28,20.28,0,0,1,6.21,57a97.48,97.48,0,0,1,18.56-7.91,1.23,1.23,0,0,1,.54-.2,1.9,1.9,0,0,0,.58-.19,1.92,1.92,0,0,1,.54-.2A1.75,1.75,0,0,0,27,48.3a2.77,2.77,0,0,1,.53-.3,1.57,1.57,0,0,0,.54-.34l.39-.39a1.64,1.64,0,0,0,.34-.49,4.83,4.83,0,0,0,.25-.58c.26-1,.63-2.56,1.12-4.55s.86-3.5,1.12-4.54q3.81-15.91,3.62-25.59C34.8,7.8,34.05,5.2,32.68,3.7a3.31,3.31,0,0,0-2.29-1.17,4.34,4.34,0,0,0-2.49.54,8.27,8.27,0,0,0-2.15,1.66q-1,1-3.76,4.34a50.08,50.08,0,0,1-5,5.28,17.18,17.18,0,0,1-4.74,3,8,8,0,0,1-4.64.78A5.77,5.77,0,0,1,3.57,16a1.53,1.53,0,0,1-.19-1.66c.19-.52.78-.49,1.75.1a6,6,0,0,0,5.57.39,13.14,13.14,0,0,0,5-3.08,57.55,57.55,0,0,0,4.69-5.13,39.51,39.51,0,0,1,4.06-4.4q3.61-3,7-1.95,6.15,1.86,6.06,12.41Q37.38,24.21,32,44.63c-.07.33-.12.57-.15.74s-.06.4-.1.73a1,1,0,0,0,.1.68c.1.13.28.17.54.1q15-3.71,25-3.52c1,0,1.63-.26,1.76-.78s.49-1.53,1.07-3.42Q65.41,22.75,71.08,7.7q.58-1.56,1.75-4.29A4,4,0,0,1,73.81,1.94ZM27.6,51.76a6.64,6.64,0,0,0,.2-1.27.24.24,0,0,0-.2-.24,1.33,1.33,0,0,0-.49,0,3.33,3.33,0,0,0-.44.1l-.43.14A129.15,129.15,0,0,0,8,58.11a16.59,16.59,0,0,0-5.08,3.47,1.88,1.88,0,0,0,.19,3q1.28,1,4.45,3.23c2.11,1.49,3.69,2.7,4.73,3.61a25.6,25.6,0,0,1,6.36,8.4l.39.39c.19-.06.39-.45.58-1.17Q24.18,63.87,27.6,51.76Z"/><path class="cls-2" d="M114.16,55.87q.2.29-.3.78a8.83,8.83,0,0,1-6.25,2.73q-5.76,0-3.81-9.57c.13-.85.07-1.33-.19-1.46q-1.08-.39-3.13,2.44A138.17,138.17,0,0,0,90.81,67.4c-.46.71-.9,1-1.32,1a1.66,1.66,0,0,1-1.12-.88q-.89-1.36.09-5.08a47.75,47.75,0,0,1,3.81-9.67q-6.54,4.5-12,3.52a2.4,2.4,0,0,1-.88-.2,12.33,12.33,0,0,1-.49,2.74,16.84,16.84,0,0,1-1.56,4.1q-2.94,5.37-6.65,5.47a4.27,4.27,0,0,1-3.46-1.46A7.07,7.07,0,0,1,65.8,62.8a13,13,0,0,1,1.9-7.71A7.61,7.61,0,0,1,73.52,51c.58-.06.94.3,1.07,1.08s-.1,1-.68,1q-3.22.3-4.89,4.25a11.51,11.51,0,0,0-.88,7.18,3,3,0,0,0,1.67,2.15,2.82,2.82,0,0,0,2.63-.39q3.23-1.95,5-7.62c.53-1.82.56-2.93.1-3.32a4.66,4.66,0,0,1-2.24-5.47c.19-.85.6-1.33,1.22-1.46s1.25.48,1.9,1.85a11.73,11.73,0,0,1,1.08,4.59,6,6,0,0,0,1,.3q4.69.78,10.36-2.84a13.27,13.27,0,0,0,3-2.34,1.26,1.26,0,0,1,1.85-.44,1.3,1.3,0,0,1,.59,1.81c-.13.26-.39.75-.78,1.46a52.58,52.58,0,0,0-3.42,6.94c-.59,1.36-.82,2.08-.69,2.15s.43-.13.69-.59A99.42,99.42,0,0,1,98.82,50.1a26,26,0,0,1,2.93-3.32,2.53,2.53,0,0,1,3.52-.39c.65.46.89,1.79.73,4a25.85,25.85,0,0,0,0,5.37,2.39,2.39,0,0,0,1.66,1.76,4.56,4.56,0,0,0,2.64,0,7.87,7.87,0,0,0,2.54-1.27C113.54,55.74,114,55.61,114.16,55.87Z"/><path class="cls-2" d="M144.93,55.87c.32.26.29.65-.1,1.17-.13.13-.36.39-.68.78l-1.42,1.76-1.56,2q-.54.69-1.47,1.71A20.81,20.81,0,0,1,137.94,65a20.5,20.5,0,0,1-1.8,1.42A13.46,13.46,0,0,1,133.26,68a5.67,5.67,0,0,1-3.13.29,3,3,0,0,1-2.3-2,8.44,8.44,0,0,1-.34-1.07,5.15,5.15,0,0,1-.14-1.27c0-.46,0-.83,0-1.13a5.3,5.3,0,0,1,0-1.27c.06-.55.11-.94.14-1.17s.1-.63.2-1.22a5.09,5.09,0,0,1,.24-1.07c.07-.65.07-1,0-1s-.58.2-1.37,1-1.72,1.82-3.22,3.32l-3.42,3.42q-.11.09-.78.78t-.93.93l-.88.83c-.42.39-.76.68-1,.88s-.59.42-1,.68-.77.49-1.12.68a9.41,9.41,0,0,1-1,.49,3.33,3.33,0,0,1-2.83-.24,2.91,2.91,0,0,1-1.27-2.49,12.58,12.58,0,0,1,.88-4.59,29.83,29.83,0,0,1,5.91-9.53,17.47,17.47,0,0,1,8.84-5.71q3.12-.69,5.08,2.63a2.38,2.38,0,0,0,1.07.88c.52.2.83.44.93.74a2.17,2.17,0,0,1-.15,1.31A30.34,30.34,0,0,0,130.57,56c-.33,1-.67,2.3-1,3.77a10.57,10.57,0,0,0-.29,4,3.54,3.54,0,0,0,1.32,2.54q2.25,1.57,7.23-3a54.8,54.8,0,0,0,5.47-6.25c.39-.52.68-.89.88-1.12S144.6,55.61,144.93,55.87Zm-17.78-2a1.47,1.47,0,0,0,.39-.88,4.72,4.72,0,0,0-.49-2.15,1.64,1.64,0,0,0-1.56-1,4.6,4.6,0,0,0-1.86.49,19.47,19.47,0,0,0-6.93,5.66A30.21,30.21,0,0,0,112,64.27q-1.47,3.81.1,3.52a.44.44,0,0,0,.29-.1,9.94,9.94,0,0,0,2.83-2Q118.45,62.91,127.15,53.91Z"/></svg>