<?xml version="1.0" standalone="no"?>
<!DOCTYPE svg PUBLIC "-//W3C//DTD SVG 20010904//EN"
 "http://www.w3.org/TR/2001/REC-SVG-20010904/DTD/svg10.dtd">
<svg version="1.0" xmlns="http://www.w3.org/2000/svg"
 width="300.000000pt" height="547.000000pt" viewBox="0 0 300.000000 547.000000"
 preserveAspectRatio="xMidYMid meet">
<metadata>
Created by potrace 1.10, written by Peter Selinger 2001-2011
</metadata>
<g transform="translate(0.000000,547.000000) scale(0.100000,-0.100000)"
fill="#000000" stroke="none">
<path d="M1750 5462 c0 -5 62 -59 138 -119 355 -284 517 -461 628 -688 145
-296 161 -671 38 -906 -115 -219 -274 -297 -971 -479 -188 -50 -395 -107 -460
-129 -258 -85 -423 -175 -552 -301 -312 -305 -282 -625 86 -930 53 -44 101
-80 107 -81 6 0 -61 -24 -149 -53 -193 -64 -291 -108 -401 -181 -147 -98 -206
-190 -210 -329 -5 -152 63 -285 222 -435 129 -122 292 -225 584 -367 450 -219
607 -309 726 -417 50 -45 74 -57 74 -38 0 14 -125 116 -225 183 -49 33 -256
143 -460 244 -385 190 -507 262 -637 371 -177 149 -280 332 -264 467 12 103
34 146 115 227 66 64 95 84 201 137 112 55 405 162 445 162 9 0 46 -20 83 -43
474 -308 814 -455 1187 -512 133 -21 369 -24 480 -6 223 36 404 133 447 240
17 43 18 138 1 187 -21 61 -109 155 -192 204 -264 156 -722 179 -1436 74 -174
-26 -408 -72 -503 -100 l-53 -15 -82 64 c-257 202 -367 405 -327 602 27 135
142 296 288 403 182 134 409 221 896 343 406 101 678 193 794 269 124 80 203
185 254 339 28 86 31 112 36 246 5 168 -9 274 -54 416 -89 284 -290 524 -727
873 -104 82 -127 96 -127 78z m641 -3498 c328 -40 551 -176 584 -357 19 -99
-54 -202 -189 -266 -329 -157 -872 -105 -1377 131 -150 71 -569 319 -569 337
0 19 467 106 762 141 329 40 548 44 789 14z"/>
</g>
</svg>
