<svg id="Capa_1" data-name="Capa 1" xmlns="http://www.w3.org/2000/svg" xmlns:xlink="http://www.w3.org/1999/xlink" viewBox="0 0 948.99 1730.41"><defs><style>.cls-1{fill:none;}.cls-2{fill:#ffacad;}.cls-3{clip-path:url(#clip-path);}</style><clipPath id="clip-path"><polygon class="cls-1" points="1100.37 -1471.05 1100.37 39.17 1111.86 40.66 1121.93 27.72 1139.65 28.79 1144.73 14.57 1152.11 1.27 1165.24 4.72 1176.58 -5.02 1187.66 3.72 1200.36 6.55 1211.96 0.23 1223.94 -4.51 1237.48 -0.41 1249.91 -1.85 1261.56 -10.28 1274.14 -12.27 1286.91 -10.29 1299.61 -12.73 1312.69 -16.64 1326.04 -12.42 1339.5 -9.56 1352.9 -6.56 1367.31 -11.46 1380.99 -9.31 1394.67 -6.65 1407.35 -0.04 1419.87 5.96 1431.21 10.54 1443.43 13.35 1450.97 25.8 1465.34 20.43 1475.81 27.98 1487.99 34.7 1502.57 26.67 1516 29.23 1523.61 45.58 1536.34 48.27 1548.38 53.7 1556.82 64.46 1570.47 67.83 1583.29 69.28 1593.89 80.48 1606.92 86.19 1620.53 79.39 1633.58 81.58 1647.03 83.81 1657.35 92.54 1665.57 104.43 1681.14 101.98 1689.74 114.08 1703.71 114.09 1716.55 116.51 1728.64 121.39 1741.84 121.95 1752.23 136.19 1767.32 126.22 1778.74 138.17 1792.82 130.87 1805.67 132.96 1818.08 142.34 1831.68 134.09 1844.56 138.59 1857.63 139.49 1870.78 135.06 1883.82 143.03 1896.92 138.79 1910.05 143.41 1923.09 134.35 1936.2 135.62 1948.86 140.94 1961.62 144.17 1973.99 137.96 1986.37 134.67 1999.5 140 2011.07 130.29 2024.96 138.51 2037.17 134.37 2049.77 132.46 2059.73 120.37 2072.89 118.11 2087.66 124.41 2100.46 122.21 2113.59 122.38 2125.46 111.53 2138.74 112.05 2152.19 116.38 2164.85 108.08 2178.14 111.4 2191.22 109.69 2193.21 109.23 2193.21 -1471.05 1100.37 -1471.05"/></clipPath></defs><title>Ana &amp;amp; Benjie</title><path class="cls-2" d="M553.9,4.93c75.82,59.07,154.53,120,211.59,198.35,39.59,54.37,61.88,117.12,68.27,183.94,6,62.9-1.74,131.92-40.52,183.95-21.38,28.69-50.35,46.71-82.59,61-34.54,15.35-70.6,27.11-106.86,37.64-76.88,22.3-155.38,38.67-231.83,62.48C306.11,752.84,237.83,779,186.47,826.6c-46,42.65-83.71,102.54-70.51,167.55,11,53.94,51.25,97.56,92.24,131.66,37.23,31,78.55,55.9,119.72,81.15,32.67,20,65.24,39.78,99.64,56.78a810,810,0,0,0,131.64,51.82c88,25.7,186.29,37.25,276.3,15,35.88-8.86,75.55-24.1,98.71-54.52,20.45-26.85,18.66-60.39.91-88.13-21.77-34-58.67-55.34-96-68.29-46.2-16-95.67-21.37-144.29-23.28-46-1.81-91.43.23-137.23,4.47-117.09,10.84-235.32,29.27-347.92,63.74-50.31,15.39-101.65,34.13-145.3,64.1-16.86,11.57-32.75,25.13-44.65,41.9C4.22,1292.45-2.19,1320.12.66,1346.67c4,36.82,24.16,69.71,48.09,97.09,29.81,34.1,66.82,61.84,105.34,85.33,78.85,48.09,166.26,80.26,246.41,126,36.61,20.91,71.89,44.64,101.93,74.41,2.75,2.72,7-1.52,4.25-4.24-61.53-61-142.92-97.81-220.06-134.65-81.26-38.81-166.23-77.82-228.3-145.19-26.13-28.36-49.28-63.68-52-103.18-1.86-26.48,5.83-52.88,22.38-73.63,28.84-36.14,74.39-58,116.29-75,54.43-22.07,111.62-37.27,168.93-49.74,58-12.62,116.58-22.22,175.42-29.6,43.76-5.49,87.76-10,131.83-12.07,27.66-1.29,55.43-.84,83.07.54,47.87,2.4,96.45,8.5,141.5,25.62,37.7,14.33,77.9,40.12,92.94,79.5,14.08,36.87-6.34,69.8-37.31,89.63-35.51,22.74-79.41,32.33-120.87,36.21-47.81,4.47-96.49,1.63-143.76-6.4-92.3-15.68-180.39-51.51-261.13-98.32-42.87-24.86-86.11-50.92-126.58-79.55-44.1-31.19-88.38-68.61-113.27-117.55-12-23.67-18.36-50-16.09-76.57,2.78-32.64,18.25-62.77,38-88.36,44.86-58.1,109.54-91.8,177.42-116.07,72.73-26,148.42-42.55,223-62.24,36.51-9.65,72.91-19.92,108.5-32.59,31.63-11.25,65-23.61,92.49-43.23,51.16-36.49,75.43-96.48,81.08-157.43,5.48-59-4-120.8-25.34-176-29.37-75.82-88.28-136.85-148.1-189.95-35-31-71.66-60.06-108.54-88.79-3-2.35-7.28,1.87-4.24,4.24Z"/><g class="cls-3"><image width="4000" height="3000" transform="translate(2637.43 -2104.23) rotate(90) scale(0.61)" xlink:href="1000005072.jpg"/></g></svg>