<svg id="Capa_1" data-name="Capa 1" xmlns="http://www.w3.org/2000/svg" viewBox="0 0 160.4 106.5"><defs><style>.cls-1{fill:#b2af80;}.cls-2{fill:#ffacad;}</style></defs><title>Ana &amp;amp; Benjie</title><path class="cls-1" d="M54.65,76.11a1.13,1.13,0,0,1,1.56.09,1,1,0,0,1,.29,1.47,9.65,9.65,0,0,1-1,1.07,14.1,14.1,0,0,1-7.81,3.62q-4.59.78-13.38-1.47T21,79.23Q9.61,80.7,3.65,84.7a4,4,0,0,1-1,.69,1.93,1.93,0,0,1-2-.25,1,1,0,0,1-.29-1.71L.72,83q5.09-6.35,8.6-18.46.87-3,3.66-13.24t4.79-17q2-6.74,4.34-13.19,1-2.73,2.1-5.27a60.47,60.47,0,0,1,3.13-6,31.73,31.73,0,0,1,4.1-5.67,15,15,0,0,1,5-3.51,9,9,0,0,1,6-.49,6.71,6.71,0,0,1,4.4,3,6.47,6.47,0,0,1,.78,5.17,31.8,31.8,0,0,1-2.2,5.28c-1.2,2.47-2.23,4.71-3.07,6.69a13.48,13.48,0,0,0-1.08,6.2,5.54,5.54,0,0,0,3,4.79,1.9,1.9,0,0,0,.54.29,2.38,2.38,0,0,1,.63.39c.72.4.43.85-.88,1.37a3.62,3.62,0,0,1-.68.1,4.58,4.58,0,0,1-3.52-1.47q-3-2.92-2-8.79a26.17,26.17,0,0,1,1.42-4.49q.91-2.25,2.34-5.08t2.1-4.2a5.69,5.69,0,0,0,.49-4.25,3.73,3.73,0,0,0-2.93-2.79,6.93,6.93,0,0,0-4.5.35,11.2,11.2,0,0,0-4.2,3.27,54,54,0,0,0-3.71,5A41.3,41.3,0,0,0,26,17.88q-1.66,4-2.88,7T20.65,32q-1.27,4.16-1.81,6.06L17.52,42.7a2.17,2.17,0,0,0-.19.78q-.69,2.15-2,7.42c-.92,3.52-1.65,6.25-2.2,8.21s-1.29,4.36-2.2,7.23S9,71.84,8,74.25s-2.18,4.75-3.42,7v.1c.52-.19.94-.36,1.27-.49q14.27-5.56,26.77-2.73c.19.06.86.22,2,.49s1.87.42,2.2.48l2.1.44a18.88,18.88,0,0,0,2.25.39l2.05.15a11.21,11.21,0,0,0,2.19,0l2-.24a8.77,8.77,0,0,0,2.1-.49,19.21,19.21,0,0,0,1.9-.88,13.23,13.23,0,0,0,1.91-1.22c.06-.07.26-.25.58-.54A7.56,7.56,0,0,1,54.65,76.11Z"/><path class="cls-1" d="M79.07,56.47a.82.82,0,0,1,.29.78,4.33,4.33,0,0,1-.29.49,62.61,62.61,0,0,1-5.38,6.15A19.92,19.92,0,0,1,67,68.68c-2,.78-3.51.55-4.49-.68s-1.24-2.93-.78-5.08a1.72,1.72,0,0,1,.19-.78c.07-.33,0-.52-.09-.59l-.3.39q-2.92,5.76-5,7.33-2.64,2-4.74.63a5.14,5.14,0,0,1-2.29-4.34q-.59-6.36,3.12-16.12a7.7,7.7,0,0,1,.59-1.27,1.23,1.23,0,0,1,1.71-.39c.75.32,1,.81.83,1.46a16.11,16.11,0,0,1-.59,1.56A42.4,42.4,0,0,0,52,63.41a9.44,9.44,0,0,0,.24,3,3.16,3.16,0,0,0,1.22,1.9c.59.39,1.4.1,2.45-.88q3.31-3,7-12.21.59-1.37,2.25-6.15a1.26,1.26,0,0,1,1.07-1,1.57,1.57,0,0,1,1.37.49,1.18,1.18,0,0,1,.29,1.36c-.13.33-.29.74-.49,1.23s-.32.79-.39.92a51.58,51.58,0,0,0-3.12,10.75c0,.72,0,1.47,0,2.25a2.66,2.66,0,0,0,.63,2,2,2,0,0,0,2.15.39c1.5-.39,3.35-1.66,5.57-3.81a54,54,0,0,0,5.08-5.66c.65-.79,1-1.21,1.07-1.28A.52.52,0,0,1,79.07,56.47Z"/><path class="cls-1" d="M107,56.57q.67-.49,1,0c.23.32.12.68-.34,1.07a11.63,11.63,0,0,1-1.37,1.08q-1,.68-10.84,8.11-2.34,1.76-3.71,6Q86.3,90.57,78.58,100.43q-3.52,4.39-6.64,5.67a3.89,3.89,0,0,1-3.33.05,3.59,3.59,0,0,1-1.85-2.69q-1.67-7,7.91-18.66A184.6,184.6,0,0,1,88.35,70.93a10.36,10.36,0,0,0,3.51-5.67q0-.29,1.86-8.3c.13-.65.16-1,.1-1-.2-.19-1.27.75-3.23,2.83q-4.78,5.09-8.1,8.11c-2.28,2.09-4,3.32-5.18,3.72a3.18,3.18,0,0,1-2.64-.35A3.06,3.06,0,0,1,73.4,68a9,9,0,0,1,1.08-4.59Q78.88,53.35,85.9,49.24c3.33-1.89,5.83-1.76,7.53.39.06.07.42.59,1.07,1.56a1.42,1.42,0,0,0,.73-.19,1.46,1.46,0,0,1,.44-.2A1.52,1.52,0,0,1,97,51a1.25,1.25,0,0,1,.54,1.07,7.15,7.15,0,0,1-.29,1.76L94.5,64.38c-.13.85-.06,1.24.2,1.18.39-.33.81-.65,1.27-1q4.88-3.81,9.67-7.13A12.51,12.51,0,0,1,107,56.57ZM89.62,73.76c.19-.65.16-1-.1-1.17s-.82-.16-1.27.29A108.1,108.1,0,0,0,75.16,86.75q-9.87,12.51-6.55,17.59,1.08,1.66,4-.29,4.09-2.64,8.21-10A111.8,111.8,0,0,0,89.62,73.76Zm1.76-19.24a1.44,1.44,0,0,0,.48-1.27,4,4,0,0,0-.48-1.86,1.67,1.67,0,0,0-2-.88,8.61,8.61,0,0,0-2.25.88,18.53,18.53,0,0,0-5.07,4.1,31.71,31.71,0,0,0-5.28,8.21A18.65,18.65,0,0,0,75.94,66a4,4,0,0,0-.19,1.75c.06.59.35.79.87.59A6.15,6.15,0,0,0,78,67.51c1-.78,1.92-1.5,2.64-2.15q2.73-2.53,8.21-8.21c.26-.26.66-.68,1.22-1.27S91.05,54.84,91.38,54.52Z"/><path class="cls-1" d="M138.27,56.57c.32.26.29.65-.1,1.17-.13.13-.36.39-.68.78l-1.42,1.76c-.68.85-1.21,1.5-1.56,1.95s-.85,1-1.47,1.71a22.41,22.41,0,0,1-1.76,1.76,19.29,19.29,0,0,1-1.81,1.42,13,13,0,0,1-2.88,1.56,5.63,5.63,0,0,1-3.12.29,3,3,0,0,1-2.3-2,8.44,8.44,0,0,1-.34-1.07,5.08,5.08,0,0,1-.15-1.27,9,9,0,0,0-.05-1.13,6.63,6.63,0,0,1,.05-1.27l.15-1.17c0-.22.1-.63.19-1.22a4.84,4.84,0,0,1,.25-1.07c.06-.65.06-1,0-1s-.59.2-1.37,1-1.73,1.82-3.22,3.32l-3.42,3.42q-.11.09-.78.78c-.46.46-.77.76-.93.93l-.88.83c-.43.39-.77.68-1,.88s-.58.42-1,.68a13,13,0,0,1-1.13.68,9.31,9.31,0,0,1-1,.49,3.35,3.35,0,0,1-2.84-.24A2.93,2.93,0,0,1,102.41,68a12.83,12.83,0,0,1,.88-4.59,30.19,30.19,0,0,1,5.91-9.53A17.51,17.51,0,0,1,118,48.17c2.09-.46,3.78.42,5.09,2.63a2.28,2.28,0,0,0,1.07.88c.52.2.83.44.93.74a2.17,2.17,0,0,1-.15,1.31,30.34,30.34,0,0,0-1.07,2.93c-.33,1.05-.67,2.3-1,3.77a10.36,10.36,0,0,0-.29,3.95,3.54,3.54,0,0,0,1.32,2.54q2.24,1.58,7.23-3a54.8,54.8,0,0,0,5.47-6.25c.39-.52.68-.89.88-1.12S137.94,56.31,138.27,56.57Zm-17.78-2a1.47,1.47,0,0,0,.39-.88,4.85,4.85,0,0,0-.49-2.15,1.65,1.65,0,0,0-1.56-1,4.56,4.56,0,0,0-1.86.49A19.5,19.5,0,0,0,110,56.76,30.18,30.18,0,0,0,105.35,65q-1.47,3.81.09,3.52a.45.45,0,0,0,.3-.1,9.94,9.94,0,0,0,2.83-2Q111.8,63.61,120.49,54.61Z"/><path class="cls-1" d="M160.34,56.57c.13.19,0,.45-.29.78a8.67,8.67,0,0,1-6.25,2.83Q148,60.09,150,50.51c.13-.78,0-1.24-.29-1.37-.66-.32-1.66.49-3,2.44A131.85,131.85,0,0,0,137,68.1c-.46.71-.9,1-1.32,1a1.67,1.67,0,0,1-1.13-.88q-.87-1.36.1-5.08a49.32,49.32,0,0,1,5-11.82,7.23,7.23,0,0,0,.39-.68,1.29,1.29,0,0,1,1.86-.34,1.21,1.21,0,0,1,.49,1.8,6.51,6.51,0,0,1-.68,1.37,44.49,44.49,0,0,0-3.52,7c-.52,1.3-.72,2-.59,2.05s.42-.13.69-.59A113.8,113.8,0,0,1,145,50.8a20.36,20.36,0,0,1,2.93-3.22,2.58,2.58,0,0,1,3.51-.49c.65.52.9,1.87.74,4.06a24.74,24.74,0,0,0,.05,5.32,2.42,2.42,0,0,0,1.66,1.86,4.31,4.31,0,0,0,2.63,0A8.78,8.78,0,0,0,159.07,57C159.72,56.5,160.15,56.37,160.34,56.57Z"/><path class="cls-2" d="M484.05-187.11C559.87-128,638.58-67.12,695.63,11.23c39.59,54.38,61.89,117.13,68.28,183.94,6,62.9-1.75,131.93-40.52,184-21.38,28.69-50.35,46.71-82.59,61-34.54,15.35-70.61,27.11-106.87,37.63-76.87,22.31-155.38,38.67-231.83,62.48C236.25,560.79,168,586.93,116.61,634.56,70.63,677.21,32.9,737.09,46.1,802.1,57.05,856,97.35,899.66,138.34,933.76c37.24,31,78.55,55.91,119.73,81.15,32.67,20,65.24,39.78,99.63,56.78a810.73,810.73,0,0,0,131.64,51.83c88,25.69,186.29,37.25,276.3,15,35.89-8.86,75.56-24.11,98.72-54.53,20.45-26.85,18.66-60.38.91-88.12-21.78-34-58.67-55.34-96-68.29-46.2-16-95.66-21.37-144.28-23.29-46-1.81-91.43.24-137.24,4.48-117.08,10.83-235.31,29.27-347.92,63.73-50.3,15.4-101.64,34.14-145.3,64.1-16.86,11.58-32.75,25.14-44.64,41.91-15.52,21.87-21.93,49.53-19.08,76.09,4,36.82,24.16,69.71,48.09,97.08,29.81,34.11,66.82,61.84,105.34,85.34,78.85,48.09,166.27,80.26,246.41,126,36.62,20.91,71.9,44.63,101.94,74.41,2.75,2.72,7-1.52,4.24-4.24-61.52-61-142.92-97.82-220-134.66-81.26-38.81-166.23-77.81-228.31-145.18-26.13-28.37-49.27-63.68-52-103.18-1.86-26.48,5.83-52.88,22.39-73.63,28.83-36.14,74.39-58,116.28-75C129.52,979.53,186.7,964.34,244,951.86c58-12.61,116.57-22.21,175.42-29.59,43.76-5.49,87.76-10,131.83-12.08,27.66-1.28,55.42-.83,83.07.55,47.86,2.39,96.45,8.5,141.5,25.62,37.69,14.32,77.9,40.12,92.93,79.49,14.08,36.87-6.33,69.8-37.31,89.64-35.5,22.73-79.4,32.33-120.87,36.21-47.81,4.47-96.48,1.62-143.76-6.41-92.3-15.67-180.38-51.5-261.13-98.32-42.87-24.85-86.1-50.92-126.57-79.54C135,926.24,90.75,888.82,65.85,839.88c-12-23.67-18.35-50-16.09-76.57,2.79-32.64,18.26-62.77,38-88.36,44.87-58.1,109.54-91.81,177.43-116.07,72.73-26,148.42-42.55,223-62.25,36.51-9.64,72.92-19.91,108.51-32.58,31.62-11.26,65-23.61,92.49-43.23,51.15-36.5,75.42-96.49,81.08-157.44,5.47-59-4-120.79-25.34-176-29.38-75.82-88.28-136.85-148.1-189.95-35-31-71.67-60.07-108.54-88.8-3-2.34-7.29,1.87-4.24,4.25Z"/></svg>