<svg id="Capa_1" data-name="Capa 1" xmlns="http://www.w3.org/2000/svg" viewBox="0 0 572.19 187.86"><defs><style>.cls-1{fill:#ffacad;}</style></defs><title>Ana &amp;amp; Benjie</title><path class="cls-1" d="M135,42.48a1.49,1.49,0,0,1,.73.93,1.39,1.39,0,0,1-.2,1.13,1.72,1.72,0,0,1-1,.73h-.1a12.4,12.4,0,0,0-4.84,2.25,16,16,0,0,0-3.85,4.25,42.7,42.7,0,0,0-2.69,4.73q-1,2.16-2.2,5.08-1.86,4.89-3.61,11T114.5,82.93q-1,4.25-2.54,11.62t-2.34,10.8A110.64,110.64,0,0,1,104.83,122c-1.56,3.71-3.32,5.82-5.28,6.35a3.75,3.75,0,0,1-3.9-.88,10.47,10.47,0,0,1-2.59-4.94A54.57,54.57,0,0,1,91.79,117c-.23-1.4-.44-3-.64-4.93a1.58,1.58,0,0,0-.1-.68q-.39-3.81-1.46-22.86c-.07-.78-.16-2.38-.29-4.79s-.23-4.1-.3-5.08-.16-2.52-.29-4.64-.26-3.83-.39-5.13-.29-2.85-.49-4.64-.41-3.47-.63-5-.51-3.13-.84-4.69a29.9,29.9,0,0,0-2.24-7.91c-1.11-2-2.7-1.7-4.79.78q-3.7,4.29-8.11,14.85Q59.79,89.14,53.05,128.21a1.46,1.46,0,0,1-.63,1,1.64,1.64,0,0,1-1.22.29,1.56,1.56,0,0,1-1.08-.64,1.41,1.41,0,0,1-.29-1.12Q56,89.62,68.29,61.19q4.78-10.84,8.79-15.43a11.34,11.34,0,0,1,3.13-2.4A4.68,4.68,0,0,1,83.63,43a5,5,0,0,1,2.93,2.54q1.27,2.44,2.25,8.6.78,5.37,2,22.86c.06,1,.23,3.12.49,6.45s.44,5.65.53,7,.28,3.42.54,6.25.51,5.15.73,6.94.53,3.88.88,6.25.74,4.61,1.13,6.69c.71,3.65,1.53,6.19,2.44,7.62.26.52.57.8.93.83a1.41,1.41,0,0,0,1.12-.53,9.66,9.66,0,0,0,1-1.22,13.72,13.72,0,0,0,.93-1.66l.68-1.47c.13-.29.29-.63.49-1a99.79,99.79,0,0,0,4.1-14.45q.78-3.53,2.35-10.85t2.58-11.72q1-4.39,2.79-10.5t3.71-11.09a52,52,0,0,1,2.44-5.72,52.72,52.72,0,0,1,3.18-5.32,19,19,0,0,1,4.39-4.69,14.52,14.52,0,0,1,5.43-2.54A2,2,0,0,1,135,42.48Z"/><path class="cls-1" d="M161.69,99.1c.19.26.13.58-.2,1-.2.2-.65.59-1.37,1.18q-8.49,7.23-9.47,8.1c-.13.07-.2.15-.2.25a.54.54,0,0,0,.05.24,1.77,1.77,0,0,0,.29.35,1.85,1.85,0,0,1,.34.43q.69,1.08-.48,3.33a13.6,13.6,0,0,1-3.57,4.39,11.44,11.44,0,0,1-4.84,2.74,1.8,1.8,0,0,1-1.85-.49,1.52,1.52,0,0,1-.39-1.76q1.06-2.53,6-7.42a7.78,7.78,0,0,1,.68-.79c.06-.25-.16-.48-.68-.68h-.1a32.57,32.57,0,0,1-3.62-1.27,4.62,4.62,0,0,1-2.63-4.2c-.2-1.89.49-4.1,2-6.64a15.09,15.09,0,0,1-10,2.15,11,11,0,0,1-1.36-.3,13.69,13.69,0,0,1-.49,2.64,17.27,17.27,0,0,1-1.56,4q-2.94,5.37-6.65,5.47a4,4,0,0,1-3.47-1.37,7.28,7.28,0,0,1-1.41-4.2,13,13,0,0,1,1.9-7.72,7.6,7.6,0,0,1,5.81-4.1c.59-.07,1,.29,1.08,1.07s-.1,1-.68,1.08q-3.23.28-4.89,4.25a11.18,11.18,0,0,0-.88,7.08,2.62,2.62,0,0,0,4.3,1.76q3.23-2,5-7.62c.52-1.82.56-2.9.1-3.23a5.46,5.46,0,0,1-1.86-2h-.09a4.7,4.7,0,0,1-.3-3.42,1.94,1.94,0,0,1,1.18-1.56q1-.19,1.95,1.86a11.72,11.72,0,0,1,1.07,4.69,10.55,10.55,0,0,0,1.47.48q5.76.89,11.63-3.81a1.32,1.32,0,0,0,.19-.29,33,33,0,0,1,5.86-6.06,5,5,0,0,1,3.76-1.41c1.14.16,1.58,1,1.32,2.59a7.77,7.77,0,0,1-1,2.83,17.79,17.79,0,0,1-1,1.9c-.55,1-1,1.73-1.32,2.35s-.67,1.37-1,2.25a5.44,5.44,0,0,0-.44,2.49,3.8,3.8,0,0,0,.79,2,.5.5,0,0,1-.05.63,1.38,1.38,0,0,1-.64.35,1.47,1.47,0,0,1-1.37-.69,5,5,0,0,1-.92-3.32,9.65,9.65,0,0,1,1-3.52l1.17-2q.78-1.36,1.08-2a9.83,9.83,0,0,0,.63-1.12c.1-.23.21-.48.35-.74a.87.87,0,0,0,.14-.58.23.23,0,0,0-.24-.2c-.33,0-1,.43-2,1.27a30.09,30.09,0,0,0-7.13,9.09q-2.34,4.68.3,6a30.11,30.11,0,0,0,5,1.57,1.72,1.72,0,0,0,1.76-.39q4.59-4,9.86-8c.59-.45,1-.78,1.18-1C161.2,98.84,161.49,98.84,161.69,99.1ZM148,114.34a4,4,0,0,0,1.07-1.76.93.93,0,0,0-.24-.83c-.23-.29-.48-.34-.73-.15a24.75,24.75,0,0,0-5.47,6.35c-.4.65-.4.94,0,.88a.84.84,0,0,0,.39-.1A17.3,17.3,0,0,0,148,114.34Z"/><path class="cls-1" d="M227.19,99.19c.16.2-.05.53-.64,1a9.08,9.08,0,0,1-5.23,1.71,7.21,7.21,0,0,1-5-1.81c-.71-.58-1.14-.74-1.27-.48a63.4,63.4,0,0,1-5.27,10.06q-2.75,3.81-5.38,3.42-5.46-.78-3.51-12.9a49.39,49.39,0,0,1,1.76-7.52c.45-1.24,1.07-1.82,1.85-1.76a1.52,1.52,0,0,1,1,.39.86.86,0,0,1,.24,1c-.13.46-.32,1-.58,1.76A43,43,0,0,0,203,104.57q-.39,5,1.36,5.86,2.06,1.08,5.18-3.71a75.49,75.49,0,0,0,4.89-9.38,2.89,2.89,0,0,0,.29-2,5.43,5.43,0,0,1,.59-3.33,2.26,2.26,0,0,1,1.22-1,.94.94,0,0,1,1.12.24,1.41,1.41,0,0,1,.1,1.37c-.26.72-.56,1.53-.88,2.44a3.31,3.31,0,0,0,1.22,4.15,5.75,5.75,0,0,0,4.45,1.52,8.08,8.08,0,0,0,3.71-1.47C226.71,99,227,99,227.19,99.19Z"/><path class="cls-1" d="M248.53,99.49c.07.13,0,.32-.19.58a57.79,57.79,0,0,1-8.5,9.19q-6.65,5.37-11.63,4.1-5.47-1.36-4-8.69A22.07,22.07,0,0,1,229,95.19q5-6.34,9.38-5.67a2.3,2.3,0,0,1,1.81,1.27,3.26,3.26,0,0,1,0,2.54,13.12,13.12,0,0,1-4.3,6,10.76,10.76,0,0,1-6.55,2.79,3.19,3.19,0,0,1-.68-.1,1,1,0,0,0-1.17.68,20.79,20.79,0,0,0-.83,2.64,19.51,19.51,0,0,0-.49,3,4,4,0,0,0,.63,2.73,3,3,0,0,0,2.45,1.23q5.18.48,11.62-5.67a82,82,0,0,0,6.35-6.94,1.35,1.35,0,0,1,.59-.49C248.24,99.07,248.47,99.16,248.53,99.49Zm-19.34.19c-.2.39-.07.59.39.59a5.79,5.79,0,0,0,2.54-.68,14.27,14.27,0,0,0,5.76-5.38,4.37,4.37,0,0,0,.69-1.36,1.88,1.88,0,0,0,.19-1.23c-.06-.48-.32-.66-.78-.53a5.28,5.28,0,0,0-2,1,27.79,27.79,0,0,0-6.45,7A2.25,2.25,0,0,0,229.19,99.68Z"/><path class="cls-1" d="M289.76,99.19q.78.5.09,1.47a57.32,57.32,0,0,1-8.59,9.09,8.06,8.06,0,0,1-5.18,2,3.38,3.38,0,0,1-3-1.52,6.94,6.94,0,0,1-1.12-3.66c0-.91,0-1.92.14-3s.21-2,.34-2.78.35-1.81.64-3.18.47-2.31.54-2.83a1.25,1.25,0,0,0-.1-1.12c-.2-.23-.52-.25-1-.05a11.14,11.14,0,0,0-2.44,3.22c-.46.78-1.48,2.61-3.08,5.47s-2.88,5.05-3.86,6.55a1.77,1.77,0,0,1-1.95,1c-1.37-.26-2.05-1.49-2.05-3.71a44.59,44.59,0,0,1,1-7.81c.07-.39.2-1,.4-2s.35-1.63.48-2.15a.52.52,0,0,0-.29-.53.49.49,0,0,0-.59.14,54.3,54.3,0,0,0-3.8,5.47c-.46.78-1.29,2.14-2.5,4.06l-2.78,4.44c-.52.78-1.37,2-2.54,3.52a4.43,4.43,0,0,1-1.66,1.46,2,2,0,0,1-1.86,0,2,2,0,0,1-1.07-1.51,7.37,7.37,0,0,1,.19-3.32,49,49,0,0,1,4.69-11.92,6.39,6.39,0,0,1,1.08-1.66,1.16,1.16,0,0,1,1.71-.25,1.23,1.23,0,0,1,.63,1.62c-.13.26-.45.84-1,1.75a43.55,43.55,0,0,0-4.69,10.85,2,2,0,0,0-.1,1.37c.26,0,.52-.2.78-.59q2-2.93,2.34-3.71c.33-.52,1.14-1.87,2.45-4.06s2.39-4,3.27-5.32,1.81-2.67,2.78-3.91c1.24-1.63,2.41-2.47,3.52-2.54a1.66,1.66,0,0,1,1.86.83,3.12,3.12,0,0,1,.29,2.3c-.13.52-.44,1.8-.93,3.86s-.83,3.74-1,5.08a26,26,0,0,0-.3,3.86c0,.71.12,1.09.34,1.12s.51-.28.83-.93q.69-1.36,2-3.81c.88-1.63,1.45-2.74,1.71-3.32a8.71,8.71,0,0,0,.53-.93c.3-.55.54-1,.74-1.37s.47-.84.83-1.46.68-1.16,1-1.61a16,16,0,0,1,1.08-1.47,7,7,0,0,1,1.22-1.22,10.49,10.49,0,0,1,1.22-.78,2.29,2.29,0,0,1,1.32-.29,2.54,2.54,0,0,1,1.27.43c1,.59,1.2,2.09.68,4.5a8.3,8.3,0,0,0-.44,1.56c-.22,1-.44,1.91-.63,2.79s-.41,1.93-.64,3.17a19.12,19.12,0,0,0-.34,3.27,13.65,13.65,0,0,0,.25,2.69,2.33,2.33,0,0,0,3.17,2q2.34-.59,6-4.3.19-.19,5.08-5.86C289.07,99.26,289.43,99.07,289.76,99.19Z"/><path class="cls-1" d="M332.54,99.1c.2.26.13.58-.19,1-.2.2-.65.59-1.37,1.18q-8.49,7.23-9.47,8.1c-.14.07-.2.15-.2.25a.43.43,0,0,0,.05.24,1.77,1.77,0,0,0,.29.35,1.85,1.85,0,0,1,.34.43q.69,1.08-.48,3.33a13.74,13.74,0,0,1-3.57,4.39,11.44,11.44,0,0,1-4.84,2.74,1.8,1.8,0,0,1-1.85-.49,1.52,1.52,0,0,1-.39-1.76q1.06-2.53,6-7.42a7.78,7.78,0,0,1,.68-.79c.06-.25-.16-.48-.68-.68h-.1a32.57,32.57,0,0,1-3.62-1.27,4.6,4.6,0,0,1-2.63-4.2q-.3-2.84,2-6.64a15.1,15.1,0,0,1-10,2.15,11,11,0,0,1-1.36-.3,13.69,13.69,0,0,1-.49,2.64,17.28,17.28,0,0,1-1.57,4q-2.92,5.37-6.64,5.47a4,4,0,0,1-3.47-1.37,7.28,7.28,0,0,1-1.41-4.2,13,13,0,0,1,1.9-7.72,7.6,7.6,0,0,1,5.81-4.1c.59-.07.95.29,1.08,1.07s-.1,1-.69,1.08q-3.21.28-4.88,4.25a11.18,11.18,0,0,0-.88,7.08,2.62,2.62,0,0,0,4.3,1.76q3.22-2,5-7.62c.52-1.82.55-2.9.1-3.23a5.46,5.46,0,0,1-1.86-2h-.1a4.76,4.76,0,0,1-.29-3.42,2,2,0,0,1,1.17-1.56c.65-.13,1.31.49,2,1.86a11.72,11.72,0,0,1,1.07,4.69,10.55,10.55,0,0,0,1.47.48q5.76.89,11.62-3.81a1,1,0,0,0,.2-.29,33,33,0,0,1,5.86-6.06,5,5,0,0,1,3.76-1.41c1.14.16,1.58,1,1.32,2.59a7.77,7.77,0,0,1-1,2.83,17.79,17.79,0,0,1-1,1.9c-.56,1-1,1.73-1.32,2.35s-.67,1.37-1,2.25a5.44,5.44,0,0,0-.44,2.49,3.8,3.8,0,0,0,.79,2,.51.51,0,0,1-.05.63,1.38,1.38,0,0,1-.64.35,1.46,1.46,0,0,1-1.37-.69,5,5,0,0,1-.92-3.32,9.46,9.46,0,0,1,1-3.52l1.17-2q.78-1.36,1.08-2a9.83,9.83,0,0,0,.63-1.12c.1-.23.21-.48.35-.74a1,1,0,0,0,.14-.58.23.23,0,0,0-.24-.2c-.33,0-1,.43-2,1.27a30.09,30.09,0,0,0-7.13,9.09q-2.34,4.68.29,6a30.64,30.64,0,0,0,5,1.57,1.72,1.72,0,0,0,1.76-.39q4.59-4,9.86-8a13.21,13.21,0,0,0,1.17-1C332.06,98.84,332.35,98.84,332.54,99.1Zm-13.67,15.24a4,4,0,0,0,1.07-1.76.93.93,0,0,0-.24-.83c-.23-.29-.48-.34-.74-.15a25.15,25.15,0,0,0-5.47,6.35c-.39.65-.39.94,0,.88a.81.81,0,0,0,.39-.1A17.2,17.2,0,0,0,318.87,114.34Z"/><path class="cls-1" d="M399.85,99.19c.85.07,1.24.4,1.17,1a1.3,1.3,0,0,1-.19.3.42.42,0,0,1-.29.09h-.39a3.06,3.06,0,0,1-.54,0,4.88,4.88,0,0,0-.64,0,40.79,40.79,0,0,0-8.2.39c-.72.13-1.34.81-1.86,2a36.07,36.07,0,0,1-5.86,9.28,18.07,18.07,0,0,1-5.77,4.49,3.55,3.55,0,0,1-2.49.49,2,2,0,0,1-1.8-1.56,5.73,5.73,0,0,1,.92-4.79,23.61,23.61,0,0,1,12.66-10.26,1.45,1.45,0,0,0,1-1,12.25,12.25,0,0,0,.34-1.76,23.24,23.24,0,0,0,.2-2.4,3.44,3.44,0,0,0-.49-2.1,1.24,1.24,0,0,0-1.61-.39c-1.7.52-3.45,1.89-5.28,4.11A53.86,53.86,0,0,0,371.52,113q-.58,1.47-2.34,8-.69,2.83-6.45,24.91c-.26.91-.42,1.47-.49,1.66a2.87,2.87,0,0,1-.39,1,.94.94,0,0,1-1.12.39,1,1,0,0,1-.83-.88,8.93,8.93,0,0,1,.29-1.76q5.37-21.19,7-27.84,0-.1,6.45-25.59a7.52,7.52,0,0,1,.29-1.18,1.38,1.38,0,0,1,1.76-1,1.32,1.32,0,0,1,1.08,1.56,10.12,10.12,0,0,1-.3,1.37q-1.26,4.68-1.56,5.76c-.07.13-.05.21.05.24a.21.21,0,0,0,.24,0c.26-.33.65-.88,1.18-1.66.45-.59.91-1.19,1.36-1.81a21.51,21.51,0,0,1,1.76-2.05,17.9,17.9,0,0,1,2.2-2A15.45,15.45,0,0,1,384,90.7a5.27,5.27,0,0,1,2.39-.59,4.22,4.22,0,0,1,2.29.68A5.93,5.93,0,0,1,390,92.06a3.48,3.48,0,0,1,.58,1.71c.07.69.1,1.22.1,1.62s-.05,1-.15,2-.14,1.46-.14,1.66.16.46.48.39A55.06,55.06,0,0,1,399.85,99.19ZM386,103.59a1.93,1.93,0,0,0,.2-.88c0-.32-.23-.39-.69-.19a19.19,19.19,0,0,0-9.67,9.08,7.07,7.07,0,0,0-1,2.54q-.29,2.34,3.42-.49a3.76,3.76,0,0,0,.78-.58A31.3,31.3,0,0,0,386,103.59Z"/><path class="cls-1" d="M422.81,99.29c.13.2,0,.46-.29.78a8.7,8.7,0,0,1-6.26,2.84q-5.76-.1-3.81-9.67c.13-.79,0-1.24-.29-1.37-.65-.33-1.66.49-3,2.44a132.9,132.9,0,0,0-9.67,16.51c-.46.72-.9,1-1.32,1a1.69,1.69,0,0,1-1.12-.88c-.59-.91-.56-2.61.1-5.08a49.15,49.15,0,0,1,5-11.82l.39-.69a1.3,1.3,0,0,1,1.86-.34,1.23,1.23,0,0,1,.48,1.81,6,6,0,0,1-.68,1.37,44.38,44.38,0,0,0-3.52,7c-.52,1.3-.71,2-.58,2s.42-.13.68-.58a114.58,114.58,0,0,1,6.74-11.14,20.89,20.89,0,0,1,2.93-3.22,2.59,2.59,0,0,1,3.52-.49c.65.52.89,1.87.73,4.05a26.1,26.1,0,0,0,.05,5.32,2.42,2.42,0,0,0,1.66,1.86,4.26,4.26,0,0,0,2.64,0,8.44,8.44,0,0,0,2.54-1.32C422.19,99.23,422.61,99.1,422.81,99.29Z"/><path class="cls-1" d="M474.1,99.78l.39-.34a.53.53,0,0,1,.78,0,.68.68,0,0,1,.19.83.3.3,0,0,1-.19.29,62.62,62.62,0,0,1-5.67,6.65q-3.9,3.81-6.35,4.39-3.9,1-5.27-2.25a5,5,0,0,1-.49-1.8,11.6,11.6,0,0,1,.05-2.4q.15-1.37.24-2.1c.07-.48.21-1.27.44-2.34s.34-1.68.34-1.81c.13-.52.33-1.41.59-2.68s.42-2.14.49-2.59q.28-1.36-.39-1.47c-.46-.06-.88.23-1.27.88l-1.71,2.69a18.54,18.54,0,0,0-1.32,2.2q-6.65,10.44-7.91,12.21a3.57,3.57,0,0,0-.35.44l-.34.48a4.15,4.15,0,0,1-.34.44,2.26,2.26,0,0,1-.44.44c-.13.1-.28.21-.44.35a1.12,1.12,0,0,1-.49.24,1,1,0,0,1-.53,0q-2.16-.28-1.57-3.71a39.23,39.23,0,0,1,3.91-11.33q-5.37,3.42-10.55,2.54a11.2,11.2,0,0,1-1.37-.3,13,13,0,0,1-.49,2.64,17.27,17.27,0,0,1-1.56,4q-2.93,5.37-6.64,5.47a4,4,0,0,1-3.47-1.37,7.21,7.21,0,0,1-1.42-4.2,13,13,0,0,1,1.91-7.72,7.59,7.59,0,0,1,5.81-4.1c.59-.07.94.29,1.07,1.07s-.09,1-.68,1.08q-3.22.28-4.88,4.25a11.18,11.18,0,0,0-.88,7.08,3,3,0,0,0,1.66,2.2,3,3,0,0,0,2.64-.44c2.14-1.3,3.81-3.84,5-7.62.52-1.82.55-2.9.1-3.23q-3.14-2.14-2.25-5.47a1.93,1.93,0,0,1,1.17-1.56q1-.19,1.95,1.86a11.89,11.89,0,0,1,1.08,4.69,9.74,9.74,0,0,0,1.47.48,12.42,12.42,0,0,0,6.54-.87,14.14,14.14,0,0,0,5.86-4,1.21,1.21,0,0,1,1.66-.24,1.2,1.2,0,0,1,.69,1.51c-.2.39-.49.91-.88,1.56a50.58,50.58,0,0,0-4.69,10.85c-.26.78-.29,1.3-.1,1.56,0,.07,0,.1.1.1a.41.41,0,0,0,.24-.15,2.71,2.71,0,0,0,.34-.44l8.6-13.77c.46-.79.73-1.24.83-1.37s.26-.39.49-.78a4,4,0,0,1,.59-.83,9,9,0,0,0,.63-.74,8.16,8.16,0,0,1,.64-.73,6.79,6.79,0,0,1,.68-.58,3.6,3.6,0,0,1,.78-.49,4.77,4.77,0,0,1,.78-.25,1.93,1.93,0,0,1,.83,0q2.35.2,1.47,4.4c-.2.91-.54,2.34-1,4.3s-.83,3.45-1,4.49a6.87,6.87,0,0,1-.15.78c-.1.46-.16.77-.2.93s-.06.47-.09.93-.05.81-.05,1.07V107a2.84,2.84,0,0,0,.14.93,4.12,4.12,0,0,0,.4.78,3.72,3.72,0,0,0,.53.68q2.25,1.86,6.65-2.14a69.85,69.85,0,0,0,5.86-6.45Z"/><path class="cls-1" d="M506.14,77.21a.72.72,0,0,0,.34.1,3.25,3.25,0,0,1,.44,0,.52.52,0,0,1,.39.2.16.16,0,0,1,0,.24c0,.2-.62.23-1.85.1a163.7,163.7,0,0,0-20.72-.49c-1.17,0-1.85.26-2.05.78a1.64,1.64,0,0,1-.14.54c-.1.23-.18.41-.25.54q-3.32,10.35-4.69,16.8-3.51,17.19.3,17.88c1.1.19,2.57-.72,4.39-2.74a76.63,76.63,0,0,0,7.82-10.55c.45-.72.78-1.2,1-1.47a.48.48,0,0,1,.63-.09.56.56,0,0,1,.34.49,6.12,6.12,0,0,1-.49,1,3.52,3.52,0,0,0-.48.69c-1.57,2.47-2.85,4.43-3.86,5.86a62.07,62.07,0,0,1-3.91,4.88,11.78,11.78,0,0,1-4,3.32q-2.92,1.08-4.34-.63t-1.32-5.37c.06-2.45.17-4.38.34-5.82s.4-3,.73-4.59q1.67-8.49,4.69-19.05a4.29,4.29,0,0,0,.2-.54c.06-.22.12-.45.19-.68a2.32,2.32,0,0,0,.1-.54c.13-.39-.23-.55-1.08-.49l-8.79.49c-6.31.59-10.78,1.41-13.38,2.45-.72.26-1.08,0-1.08-.79a1.8,1.8,0,0,1,.59-1.46q1.17-1,5.76-1.47,7.81-.78,17.29-.88c.92,0,1.47-.29,1.67-.87.91-2.8,1.88-5.64,2.93-8.5a3.25,3.25,0,0,1,.58-1.27,1.39,1.39,0,0,1,2.44,1,7.43,7.43,0,0,1-.39,1.27c-.26.85-.68,2-1.27,3.57s-.94,2.49-1.07,2.88a4,4,0,0,0-.39,1.08c-.13.39,0,.63.29.73a4.5,4.5,0,0,0,1.27.14h.2A169.21,169.21,0,0,1,506.14,77.21Z"/><path class="cls-1" d="M514.93,99a.51.51,0,0,1,.59.19.82.82,0,0,1,.09.69.28.28,0,0,0-.09.19,12.61,12.61,0,0,1-3.18,2.15,12.08,12.08,0,0,1-4.1,1.13,7.1,7.1,0,0,1-4.35-.93c-.65-.26-1-.2-1.17.19a20.71,20.71,0,0,1-1.47,3.72q-2.92,5.37-6.64,5.47a4,4,0,0,1-3.47-1.37,7.28,7.28,0,0,1-1.41-4.2,13,13,0,0,1,1.9-7.72,7.6,7.6,0,0,1,5.81-4.1c.59-.07.95.29,1.08,1.07s-.1,1-.68,1.08q-3.22.28-4.89,4.25a11.18,11.18,0,0,0-.88,7.08,2.62,2.62,0,0,0,4.3,1.76q3.22-2,5-7.62a2.43,2.43,0,0,0-.49-2.15,8.69,8.69,0,0,1-1.46-6.35c.13-1,.45-1.63,1-1.76s1.3.49,1.95,1.86a9.62,9.62,0,0,1,1,5.08,2.58,2.58,0,0,0,1.85,2.83q4.11,1.47,8.79-2.05A3.06,3.06,0,0,1,514.93,99Z"/><path class="cls-1" d="M514.74,111.31a2,2,0,0,1,2.34-1.37q1.56.3,1.56,2.25a8.5,8.5,0,0,1-1.46,4.88,6.45,6.45,0,0,1-1,.78,1.38,1.38,0,0,1-2.05-.58,3.59,3.59,0,0,1-.49-2A9.22,9.22,0,0,1,514.74,111.31ZM532.91,39.8a1.27,1.27,0,0,1,1.7-.83,1.22,1.22,0,0,1,1,1.51,3.76,3.76,0,0,1-.2,1Q523.82,87,520,100.47c-.19.78-.55,2-1.07,3.61l-.1.1c-.33,1.3-.72,1.85-1.17,1.66-.2-.07-.3-.39-.3-1,.33-1.69.49-2.6.49-2.73q1.86-8.7,6.74-28.82.89-3.53,7.92-31.95Q532.81,40.19,532.91,39.8Z"/><path class="cls-1" d="M39.29,124a1.29,1.29,0,0,1-1.71.83,1.23,1.23,0,0,1-1-1.52,4.19,4.19,0,0,1,.2-1q11.63-45.52,15.43-59c.2-.78.56-2,1.08-3.61l.1-.1c.32-1.3.71-1.86,1.17-1.66.19.06.29.39.29,1-.32,1.69-.49,2.6-.49,2.73q-1.84,8.7-6.74,28.82-.87,3.51-7.91,32Q39.38,123.59,39.29,124ZM57.46,52.47a2,2,0,0,1-2.35,1.37q-1.56-.3-1.56-2.25A8.49,8.49,0,0,1,55,46.7a6.33,6.33,0,0,1,1-.78,1.38,1.38,0,0,1,2,.59,3.57,3.57,0,0,1,.49,2A9.35,9.35,0,0,1,57.46,52.47Z"/></svg>