<svg id="Capa_1" data-name="Capa 1" xmlns="http://www.w3.org/2000/svg" viewBox="0 0 280.96 108.11"><defs><style>.cls-1{fill:#ffacad;}</style></defs><title>Ana &amp;amp; Benjie</title><path class="cls-1" d="M91.28,11.68a1.44,1.44,0,0,1,.74.93,1.37,1.37,0,0,1-.2,1.12,1.72,1.72,0,0,1-1,.73h-.1a12.4,12.4,0,0,0-4.84,2.25A16.37,16.37,0,0,0,82,21a43.26,43.26,0,0,0-2.68,4.74q-1,2.14-2.2,5.08-1.86,4.88-3.62,11T70.77,52.12q-1,4.25-2.54,11.63T65.88,74.54A109.33,109.33,0,0,1,61.1,91.15q-2.34,5.56-5.28,6.35a3.75,3.75,0,0,1-3.9-.88,10.39,10.39,0,0,1-2.59-4.93,52.49,52.49,0,0,1-1.27-5.47c-.23-1.41-.44-3-.64-4.94a1.58,1.58,0,0,0-.1-.68q-.39-3.81-1.46-22.86c-.07-.78-.17-2.38-.3-4.79s-.22-4.1-.29-5.08-.16-2.52-.29-4.64-.26-3.82-.39-5.13-.3-2.85-.49-4.64-.41-3.47-.64-5-.5-3.13-.83-4.69a29.9,29.9,0,0,0-2.24-7.91c-1.11-2-2.71-1.69-4.79.78q-3.72,4.31-8.11,14.85Q16.06,58.33,9.32,97.4a1.5,1.5,0,0,1-.63,1,1.6,1.6,0,0,1-1.22.29A1.55,1.55,0,0,1,6.39,98a1.45,1.45,0,0,1-.29-1.13q6.15-38.1,18.46-66.53Q29.35,19.55,33.35,15a11.11,11.11,0,0,1,3.13-2.39,4.63,4.63,0,0,1,3.42-.35,5,5,0,0,1,2.93,2.54c.85,1.63,1.59,4.5,2.25,8.6q.78,5.37,2.05,22.86c.06,1,.23,3.13.49,6.45s.44,5.65.53,7,.28,3.42.54,6.26.5,5.14.73,6.93.52,3.88.88,6.25.74,4.61,1.13,6.7C52.14,89.42,53,92,53.87,93.4c.26.52.57.79.93.83a1.47,1.47,0,0,0,1.12-.54,9.66,9.66,0,0,0,1-1.22,12.56,12.56,0,0,0,.92-1.66q.5-1,.69-1.47c.13-.29.29-.63.49-1a100,100,0,0,0,4.1-14.46q.78-3.52,2.34-10.85t2.59-11.72c.69-2.93,1.61-6.43,2.79-10.5S73.28,33,74.58,29.7A49.94,49.94,0,0,1,77,24a52.79,52.79,0,0,1,3.18-5.33A19,19,0,0,1,84.59,14,14.71,14.71,0,0,1,90,11.43,1.93,1.93,0,0,1,91.28,11.68Z"/><path class="cls-1" d="M123.82,68.39c.13.19-.1.52-.69,1A8.64,8.64,0,0,1,118,71.07a7.25,7.25,0,0,1-5-1.8c-.72-.59-1.14-.75-1.27-.49a67.61,67.61,0,0,1-5.37,10.06q-2.64,3.81-5.37,3.42-5.38-.78-3.52-12.9a53.33,53.33,0,0,1,1.37-6.15q-6.36,5.28-11.24,5.27h-1a17.67,17.67,0,0,1-.49,3,17.1,17.1,0,0,1-1.57,4Q81.62,80.89,77.9,81a4,4,0,0,1-3.47-1.37A7.25,7.25,0,0,1,73,75.42a13,13,0,0,1,1.9-7.72,7.6,7.6,0,0,1,5.81-4.1c.59-.06,1,.29,1.08,1.07s-.1,1-.69,1.08Q77.91,66,76.24,70a11.18,11.18,0,0,0-.88,7.08,2.62,2.62,0,0,0,4.3,1.76q3.23-1.95,5-7.62c.52-1.82.55-2.9.1-3.22-2.09-1.44-2.83-3.26-2.25-5.47A2,2,0,0,1,83.66,61c.65-.13,1.31.49,2,1.86a10.6,10.6,0,0,1,1.07,4.39,7.24,7.24,0,0,0,2.64-.09,17.75,17.75,0,0,0,5.86-2.74,24.63,24.63,0,0,0,4.59-3.71,1.53,1.53,0,0,1,1.27-.59,1.46,1.46,0,0,1,1.08.39,1.06,1.06,0,0,1,.29,1c-.13.46-.33,1-.59,1.76a40.81,40.81,0,0,0-2.24,10.55c-.2,3.32.29,5.28,1.46,5.86q2.06,1.08,5.08-3.71a65.31,65.31,0,0,0,5-9.38,3.94,3.94,0,0,0,.29-2,5.38,5.38,0,0,1,.59-3.32,2.29,2.29,0,0,1,1.17-1,.88.88,0,0,1,1.07.24,1.39,1.39,0,0,1,.1,1.37,19.55,19.55,0,0,1-.88,2.44,3.47,3.47,0,0,0,1.27,4.16A5.71,5.71,0,0,0,119.22,70a8.07,8.07,0,0,0,3.72-1.47C123.39,68.23,123.68,68.19,123.82,68.39Z"/><path class="cls-1" d="M139.74,68.68a1,1,0,0,1-.2,1.17,8.93,8.93,0,0,0-.58.69c-1.37,1.69-2.44,3-3.23,3.9a34.73,34.73,0,0,1-3.17,3.18,19,19,0,0,1-3.86,2.78c-1.82.91-3.39.95-4.69.1S122,78.16,122,76a29.43,29.43,0,0,1,2.54-12c.52-1.24,1.24-1.63,2.15-1.17s.81,1.4.1,3a16.08,16.08,0,0,0-1.18,2.88q-.58,1.8-1.17,4.2a10.57,10.57,0,0,0-.29,4.2,2.2,2.2,0,0,0,1.66,2.1c1.63.39,3.87-.78,6.74-3.52a49.66,49.66,0,0,0,5.67-6.35c.26-.32.52-.63.78-.92S139.48,68.23,139.74,68.68Zm-10.65-8.89a1.8,1.8,0,0,1-1.81.59q-.82-.3-1-1.62a5.56,5.56,0,0,1,.39-2.83,6.06,6.06,0,0,1,1.56-2.39A1.8,1.8,0,0,1,130,53c.55.2.88.73,1,1.61a6.48,6.48,0,0,1-.4,2.84A5.65,5.65,0,0,1,129.09,59.79Z"/><path class="cls-1" d="M161.13,68.68c.07.13,0,.33-.19.59a57.64,57.64,0,0,1-8.5,9.18q-6.65,5.37-11.63,4.1-5.48-1.36-4-8.69a22.12,22.12,0,0,1,4.78-9.48q5-6.34,9.38-5.66A2.27,2.27,0,0,1,152.78,60a3.25,3.25,0,0,1,.05,2.54,13.14,13.14,0,0,1-4.3,6A10.7,10.7,0,0,1,142,71.32a2.66,2.66,0,0,1-.68-.1,1,1,0,0,0-1.17.68,22.53,22.53,0,0,0-.83,2.64,19.72,19.72,0,0,0-.49,3,4,4,0,0,0,.63,2.74,3.06,3.06,0,0,0,2.45,1.22q5.18.48,11.62-5.67a79.72,79.72,0,0,0,6.35-6.93,1.28,1.28,0,0,1,.59-.49C160.84,68.26,161.07,68.35,161.13,68.68Zm-19.34.2c-.2.39-.07.58.39.58a5.79,5.79,0,0,0,2.54-.68,14.31,14.31,0,0,0,5.76-5.37,4.53,4.53,0,0,0,.69-1.37,1.86,1.86,0,0,0,.19-1.22q-.09-.74-.78-.54a5.38,5.38,0,0,0-2.05,1,27.93,27.93,0,0,0-6.45,7A2.15,2.15,0,0,0,141.79,68.88Z"/><path class="cls-1" d="M202.36,68.39c.52.32.55.81.1,1.46a56.86,56.86,0,0,1-8.6,9.09,8.06,8.06,0,0,1-5.18,2,3.37,3.37,0,0,1-3-1.51,7,7,0,0,1-1.12-3.67c0-.91,0-1.92.14-3s.21-2,.35-2.78.34-1.81.63-3.18.47-2.31.54-2.83a1.22,1.22,0,0,0-.1-1.12c-.19-.23-.52-.25-1,0A11.14,11.14,0,0,0,182.72,66c-.45.78-1.48,2.61-3.08,5.47s-2.88,5-3.85,6.55a1.8,1.8,0,0,1-2,1c-1.37-.26-2.05-1.5-2.05-3.72a44,44,0,0,1,1-7.81c.06-.39.19-1,.39-2s.35-1.62.49-2.14a.54.54,0,0,0-.3-.54.47.47,0,0,0-.58.14A52.08,52.08,0,0,0,169,68.48q-.69,1.18-2.49,4.06L163.67,77q-.78,1.18-2.54,3.52A4.47,4.47,0,0,1,159.47,82a2,2,0,0,1-2.93-1.47,7.25,7.25,0,0,1,.2-3.32,49.15,49.15,0,0,1,4.68-11.92,6.86,6.86,0,0,1,1.08-1.66,1.15,1.15,0,0,1,1.71-.24,1.22,1.22,0,0,1,.63,1.61c-.13.26-.45.85-1,1.76a43.33,43.33,0,0,0-4.69,10.84,2,2,0,0,0-.1,1.37c.26,0,.52-.2.78-.59,1.3-1.95,2.09-3.19,2.35-3.71s1.13-1.87,2.44-4.06,2.39-4,3.27-5.32,1.81-2.67,2.79-3.91q1.84-2.43,3.51-2.54a1.66,1.66,0,0,1,1.86.83,3.07,3.07,0,0,1,.29,2.3c-.13.52-.44,1.81-.93,3.86s-.83,3.74-1,5.08a26,26,0,0,0-.3,3.86c0,.71.12,1.09.35,1.12s.5-.28.83-.93c.45-.91,1.12-2.18,2-3.81s1.45-2.73,1.71-3.32a7.55,7.55,0,0,0,.54-.93c.29-.55.53-1,.73-1.37s.47-.84.83-1.46.68-1.16,1-1.61A15.76,15.76,0,0,1,183.16,61a7,7,0,0,1,1.22-1.22A10.49,10.49,0,0,1,185.6,59a2.32,2.32,0,0,1,1.32-.29,2.55,2.55,0,0,1,1.27.44q1.47.87.69,4.49a7.25,7.25,0,0,0-.44,1.56c-.23,1-.44,1.91-.64,2.79s-.41,1.94-.63,3.17a18.27,18.27,0,0,0-.35,3.28,14.35,14.35,0,0,0,.25,2.68,2.33,2.33,0,0,0,3.17,2c1.57-.39,3.55-1.82,6-4.3.13-.12,1.83-2.08,5.08-5.86C201.67,68.45,202,68.26,202.36,68.39Z"/><path class="cls-1" d="M226.49,68.29a.79.79,0,0,1,.78.88c0,.33-.23.49-.69.49a33.14,33.14,0,0,0-8.4,1.17,4.15,4.15,0,0,0-2.34,2.54,25.31,25.31,0,0,1-4,6.55q-2.54,3-5.47,3a2.82,2.82,0,0,1-2.54-1.41,2.88,2.88,0,0,1-.19-2.89q1.65-4.4,9.37-7.42a2.94,2.94,0,0,0,1.27-.78,2.23,2.23,0,0,0,.49-1,17.21,17.21,0,0,0,.64-2.59,13.05,13.05,0,0,0,.1-3.17,2.65,2.65,0,0,0-1-2.25q-1.66-.89-4.69,3a23.18,23.18,0,0,0-1.51,2.15c-.49.78-.9,1.48-1.22,2.1s-.72,1.42-1.18,2.39-.78,1.7-1,2.15-.54,1.27-1,2.44-.8,2-.93,2.35a1.16,1.16,0,0,1-.88.78q-2.53.3-1.27-9.38a156.53,156.53,0,0,1,9.28-35.85,9.78,9.78,0,0,1,.49-1.52c.33-.87.56-1.48.69-1.8s.37-.9.73-1.71.65-1.43.88-1.86l.93-1.66a9,9,0,0,1,1.07-1.56A14.25,14.25,0,0,1,216,22.37a4,4,0,0,1,1.27-.78,2.79,2.79,0,0,1,2.49,0A2.17,2.17,0,0,1,221,23.45a11.11,11.11,0,0,1-.2,3.52,52.2,52.2,0,0,1-2.34,8.49,209.13,209.13,0,0,1-12.8,29.41c-.26.39-.62,1-1.08,1.81s-.81,1.41-1.07,1.8a9.93,9.93,0,0,0-1,3.18,5.14,5.14,0,0,0,0,2.49c.07.2.23-.06.49-.78a1.32,1.32,0,0,0,.2-.49,1,1,0,0,1,.19-.29q3.31-8.11,7.23-11.73a5.57,5.57,0,0,1,3.08-1.7,3.73,3.73,0,0,1,3.17,1.22q1.86,2,.78,7.91a2.29,2.29,0,0,0-.09.68c0,.26.06.39.19.39.52-.13,1.11-.26,1.76-.39A37.81,37.81,0,0,1,226.49,68.29Zm-22.57-5.18c-.13.78-.13,1.24,0,1.37s.26-.13.59-.59a4,4,0,0,1,.39-.78,191.94,191.94,0,0,0,12.5-30.58q1-3.23,1.37-5,.39-2.44,0-3.12a1,1,0,0,0-.73-.49,1.1,1.1,0,0,0-.74.39,5.51,5.51,0,0,0-.63.73,5.89,5.89,0,0,0-.44.73,139.53,139.53,0,0,0-6.64,17.29Q205.78,54.72,203.92,63.11Zm9.38,10.36a.86.86,0,0,0,.1-.3c0-.06-.07-.13-.2-.19a13.2,13.2,0,0,0-4.1,2,14.35,14.35,0,0,0-3.42,3.13,2.49,2.49,0,0,0-.73,2,.91.91,0,0,0,1,.88,2.94,2.94,0,0,0,1.57-.44,12.13,12.13,0,0,0,1.22-.83A16.91,16.91,0,0,0,213.3,73.47Z"/><path class="cls-1" d="M250.13,68.48c.13.2,0,.46-.3.79a8.67,8.67,0,0,1-6.25,2.83q-5.76-.09-3.81-9.67c.13-.78,0-1.24-.29-1.37q-1-.48-3,2.44A131.66,131.66,0,0,0,226.78,80c-.46.72-.9,1-1.32,1a1.69,1.69,0,0,1-1.12-.88q-.89-1.36.09-5.08a49.6,49.6,0,0,1,5-11.82l.39-.68a1.28,1.28,0,0,1,1.85-.35,1.23,1.23,0,0,1,.49,1.81,6,6,0,0,1-.68,1.37,44.38,44.38,0,0,0-3.52,7c-.52,1.31-.72,2-.58,2s.42-.13.68-.58a112.55,112.55,0,0,1,6.74-11.14,20.4,20.4,0,0,1,2.93-3.22,2.59,2.59,0,0,1,3.52-.49c.65.52.89,1.87.73,4.05a25.49,25.49,0,0,0,.05,5.33,2.42,2.42,0,0,0,1.66,1.85,4.26,4.26,0,0,0,2.64,0,8.64,8.64,0,0,0,2.54-1.31C249.51,68.42,249.93,68.29,250.13,68.48Z"/><path class="cls-1" d="M271.91,68.68c.07.13,0,.33-.19.59a58.11,58.11,0,0,1-8.5,9.18q-6.64,5.37-11.63,4.1-5.47-1.36-4-8.69a22.12,22.12,0,0,1,4.78-9.48q5-6.34,9.38-5.66A2.27,2.27,0,0,1,263.56,60a3.25,3.25,0,0,1,.05,2.54,13.14,13.14,0,0,1-4.3,6,10.7,10.7,0,0,1-6.55,2.79,2.66,2.66,0,0,1-.68-.1,1,1,0,0,0-1.17.68,22.53,22.53,0,0,0-.83,2.64,19.72,19.72,0,0,0-.49,3,4,4,0,0,0,.63,2.74,3.06,3.06,0,0,0,2.45,1.22q5.18.48,11.62-5.67a79.72,79.72,0,0,0,6.35-6.93,1.28,1.28,0,0,1,.59-.49C271.62,68.26,271.85,68.35,271.91,68.68Zm-19.34.2c-.2.39-.07.58.39.58a5.79,5.79,0,0,0,2.54-.68,14.31,14.31,0,0,0,5.76-5.37A4.53,4.53,0,0,0,262,62a1.86,1.86,0,0,0,.19-1.22q-.09-.74-.78-.54a5.38,5.38,0,0,0-2.05,1,27.93,27.93,0,0,0-6.45,7A2.15,2.15,0,0,0,252.57,68.88Z"/></svg>