<svg id="Capa_1" data-name="Capa 1" xmlns="http://www.w3.org/2000/svg" viewBox="0 0 237.14 195.03"><defs><style>.cls-1{fill:#ffacad;}.cls-2{fill:#fff;stroke:#fff;stroke-miterlimit:10;}</style></defs><title>Ana &amp;amp; Benjie</title><path class="cls-1" d="M217.25,5.32c-45-25.17-96.76,47-98.68,49.68-1.92-2.71-53.66-74.85-98.68-49.68-45.87,25.66.78,105,9.33,115.85S82.87,191.14,114,195h9.2c31.1-3.89,76.2-63,84.75-73.86S263.12,31,217.25,5.32Z"/><path class="cls-2" d="M64.11,135v-5l28.57-28a46.39,46.39,0,0,0,5.9-6.73,17.56,17.56,0,0,0,3.33-10.26,11.67,11.67,0,0,0-4.07-9.43q-4.08-3.44-12-3.44a28.86,28.86,0,0,0-10.75,1.87,20.33,20.33,0,0,0-8,5.79l-5-4.32a26.26,26.26,0,0,1,10.31-7.26,37,37,0,0,1,14-2.56,30.33,30.33,0,0,1,12.08,2.21,17,17,0,0,1,10.7,16.35,23.72,23.72,0,0,1-.93,6.58,24.77,24.77,0,0,1-3.34,6.83,53.93,53.93,0,0,1-7,8.1L71.67,131.49l-2-2.74h42.61V135Z"/><path class="cls-2" d="M148.36,135.62a24.7,24.7,0,0,1-14.14-4.17,28,28,0,0,1-9.72-12Q121,111.66,121,100.66t3.54-18.8a27.88,27.88,0,0,1,9.72-12,26,26,0,0,1,28.28,0,28.12,28.12,0,0,1,9.77,12q3.58,7.8,3.59,18.8t-3.59,18.81a28.24,28.24,0,0,1-9.77,12A24.7,24.7,0,0,1,148.36,135.62Zm0-6.48A17.58,17.58,0,0,0,159,125.85a21.48,21.48,0,0,0,7.07-9.62,41.83,41.83,0,0,0,2.55-15.57A41.78,41.78,0,0,0,166,85.1,21.57,21.57,0,0,0,159,75.47a18.59,18.59,0,0,0-21.12,0,21.21,21.21,0,0,0-7.16,9.63,41.56,41.56,0,0,0-2.56,15.56,41.62,41.62,0,0,0,2.56,15.57,21.12,21.12,0,0,0,7.16,9.62A17.69,17.69,0,0,0,148.36,129.14Z"/></svg>